G75*
G70*
%OFA0B0*%
%FSLAX24Y24*%
%IPPOS*%
%LPD*%
%AMOC8*
5,1,8,0,0,1.08239X$1,22.5*
%
%ADD10C,0.0000*%
%ADD11R,0.0689X0.0256*%
%ADD12R,0.0433X0.0394*%
%ADD13R,0.0394X0.0433*%
D10*
X000181Y000181D02*
X000181Y019866D01*
X019866Y019866D01*
X019866Y000181D01*
X000181Y000181D01*
D11*
G36*
X003355Y005144D02*
X002870Y005629D01*
X003051Y005810D01*
X003536Y005325D01*
X003355Y005144D01*
G37*
G36*
X003708Y005497D02*
X003223Y005982D01*
X003404Y006163D01*
X003889Y005678D01*
X003708Y005497D01*
G37*
G36*
X004062Y005851D02*
X003577Y006336D01*
X003758Y006517D01*
X004243Y006032D01*
X004062Y005851D01*
G37*
G36*
X004415Y006204D02*
X003930Y006689D01*
X004111Y006870D01*
X004596Y006385D01*
X004415Y006204D01*
G37*
G36*
X002856Y007763D02*
X002371Y008248D01*
X002552Y008429D01*
X003037Y007944D01*
X002856Y007763D01*
G37*
G36*
X002503Y007410D02*
X002018Y007895D01*
X002199Y008076D01*
X002684Y007591D01*
X002503Y007410D01*
G37*
G36*
X002149Y007056D02*
X001664Y007541D01*
X001845Y007722D01*
X002330Y007237D01*
X002149Y007056D01*
G37*
G36*
X001796Y006703D02*
X001311Y007188D01*
X001492Y007369D01*
X001977Y006884D01*
X001796Y006703D01*
G37*
G36*
X006204Y015633D02*
X006689Y016118D01*
X006870Y015937D01*
X006385Y015452D01*
X006204Y015633D01*
G37*
G36*
X005851Y015986D02*
X006336Y016471D01*
X006517Y016290D01*
X006032Y015805D01*
X005851Y015986D01*
G37*
G36*
X005497Y016340D02*
X005982Y016825D01*
X006163Y016644D01*
X005678Y016159D01*
X005497Y016340D01*
G37*
G36*
X005144Y016693D02*
X005629Y017178D01*
X005810Y016997D01*
X005325Y016512D01*
X005144Y016693D01*
G37*
G36*
X006703Y018252D02*
X007188Y018737D01*
X007369Y018556D01*
X006884Y018071D01*
X006703Y018252D01*
G37*
G36*
X007056Y017899D02*
X007541Y018384D01*
X007722Y018203D01*
X007237Y017718D01*
X007056Y017899D01*
G37*
G36*
X007410Y017545D02*
X007895Y018030D01*
X008076Y017849D01*
X007591Y017364D01*
X007410Y017545D01*
G37*
G36*
X007763Y017192D02*
X008248Y017677D01*
X008429Y017496D01*
X007944Y017011D01*
X007763Y017192D01*
G37*
G36*
X015633Y013844D02*
X016118Y013359D01*
X015937Y013178D01*
X015452Y013663D01*
X015633Y013844D01*
G37*
G36*
X015986Y014197D02*
X016471Y013712D01*
X016290Y013531D01*
X015805Y014016D01*
X015986Y014197D01*
G37*
G36*
X016340Y014551D02*
X016825Y014066D01*
X016644Y013885D01*
X016159Y014370D01*
X016340Y014551D01*
G37*
G36*
X016693Y014904D02*
X017178Y014419D01*
X016997Y014238D01*
X016512Y014723D01*
X016693Y014904D01*
G37*
G36*
X018252Y013345D02*
X018737Y012860D01*
X018556Y012679D01*
X018071Y013164D01*
X018252Y013345D01*
G37*
G36*
X017899Y012992D02*
X018384Y012507D01*
X018203Y012326D01*
X017718Y012811D01*
X017899Y012992D01*
G37*
G36*
X017545Y012638D02*
X018030Y012153D01*
X017849Y011972D01*
X017364Y012457D01*
X017545Y012638D01*
G37*
G36*
X017192Y012285D02*
X017677Y011800D01*
X017496Y011619D01*
X017011Y012104D01*
X017192Y012285D01*
G37*
G36*
X013844Y004415D02*
X013359Y003930D01*
X013178Y004111D01*
X013663Y004596D01*
X013844Y004415D01*
G37*
G36*
X014197Y004062D02*
X013712Y003577D01*
X013531Y003758D01*
X014016Y004243D01*
X014197Y004062D01*
G37*
G36*
X014551Y003708D02*
X014066Y003223D01*
X013885Y003404D01*
X014370Y003889D01*
X014551Y003708D01*
G37*
G36*
X014904Y003355D02*
X014419Y002870D01*
X014238Y003051D01*
X014723Y003536D01*
X014904Y003355D01*
G37*
G36*
X013345Y001796D02*
X012860Y001311D01*
X012679Y001492D01*
X013164Y001977D01*
X013345Y001796D01*
G37*
G36*
X012992Y002149D02*
X012507Y001664D01*
X012326Y001845D01*
X012811Y002330D01*
X012992Y002149D01*
G37*
G36*
X012638Y002503D02*
X012153Y002018D01*
X011972Y002199D01*
X012457Y002684D01*
X012638Y002503D01*
G37*
G36*
X012285Y002856D02*
X011800Y002371D01*
X011619Y002552D01*
X012104Y003037D01*
X012285Y002856D01*
G37*
D12*
G36*
X015099Y004153D02*
X014794Y004458D01*
X015073Y004737D01*
X015378Y004432D01*
X015099Y004153D01*
G37*
G36*
X015573Y003680D02*
X015268Y003985D01*
X015547Y004264D01*
X015852Y003959D01*
X015573Y003680D01*
G37*
G36*
X015550Y004883D02*
X015245Y005188D01*
X015524Y005467D01*
X015829Y005162D01*
X015550Y004883D01*
G37*
G36*
X015077Y005357D02*
X014772Y005662D01*
X015051Y005941D01*
X015356Y005636D01*
X015077Y005357D01*
G37*
X015481Y007815D03*
X015481Y008485D03*
X016662Y008516D03*
X016662Y007847D03*
G36*
X015895Y015099D02*
X015590Y014794D01*
X015311Y015073D01*
X015616Y015378D01*
X015895Y015099D01*
G37*
G36*
X016368Y015573D02*
X016063Y015268D01*
X015784Y015547D01*
X016089Y015852D01*
X016368Y015573D01*
G37*
G36*
X015164Y015550D02*
X014859Y015245D01*
X014580Y015524D01*
X014885Y015829D01*
X015164Y015550D01*
G37*
G36*
X014691Y015077D02*
X014386Y014772D01*
X014107Y015051D01*
X014412Y015356D01*
X014691Y015077D01*
G37*
G36*
X004971Y014691D02*
X005276Y014386D01*
X004997Y014107D01*
X004692Y014412D01*
X004971Y014691D01*
G37*
G36*
X004497Y015164D02*
X004802Y014859D01*
X004523Y014580D01*
X004218Y014885D01*
X004497Y015164D01*
G37*
G36*
X004948Y015895D02*
X005253Y015590D01*
X004974Y015311D01*
X004669Y015616D01*
X004948Y015895D01*
G37*
G36*
X004475Y016368D02*
X004780Y016063D01*
X004501Y015784D01*
X004196Y016089D01*
X004475Y016368D01*
G37*
X004567Y012233D03*
X004567Y011563D03*
X003386Y011532D03*
X003386Y012201D03*
G36*
X004153Y004948D02*
X004458Y005253D01*
X004737Y004974D01*
X004432Y004669D01*
X004153Y004948D01*
G37*
G36*
X003680Y004475D02*
X003985Y004780D01*
X004264Y004501D01*
X003959Y004196D01*
X003680Y004475D01*
G37*
G36*
X004883Y004497D02*
X005188Y004802D01*
X005467Y004523D01*
X005162Y004218D01*
X004883Y004497D01*
G37*
G36*
X005357Y004971D02*
X005662Y005276D01*
X005941Y004997D01*
X005636Y004692D01*
X005357Y004971D01*
G37*
D13*
X007815Y004567D03*
X008485Y004567D03*
X008516Y003386D03*
X007847Y003386D03*
X011563Y015481D03*
X012233Y015481D03*
X012201Y016662D03*
X011532Y016662D03*
M02*
