G75*
G70*
%OFA0B0*%
%FSLAX24Y24*%
%IPPOS*%
%LPD*%
%AMOC8*
5,1,8,0,0,1.08239X$1,22.5*
%
%ADD10C,0.0000*%
%ADD11C,0.0030*%
%ADD12C,0.0020*%
%ADD13C,0.0050*%
%ADD14C,0.0060*%
%ADD15C,0.0040*%
D10*
X000181Y000181D02*
X000181Y019866D01*
X019866Y019866D01*
X019866Y000181D01*
X000181Y000181D01*
D11*
X005708Y002559D02*
X005890Y002559D01*
X005829Y002680D01*
X005829Y002741D01*
X005890Y002801D01*
X006011Y002801D01*
X006072Y002741D01*
X006072Y002619D01*
X006011Y002559D01*
X005708Y002559D02*
X005708Y002801D01*
X005708Y002921D02*
X005951Y002921D01*
X006072Y003042D01*
X005951Y003164D01*
X005708Y003164D01*
X006435Y002982D02*
X006495Y002982D01*
X006617Y002982D02*
X006859Y002982D01*
X006859Y003042D02*
X006859Y002921D01*
X006738Y002801D02*
X006495Y002801D01*
X006617Y002921D02*
X006617Y002982D01*
X006738Y002801D02*
X006859Y002680D01*
X006738Y002559D01*
X006495Y002559D01*
X007283Y002559D02*
X007525Y002559D01*
X007647Y002680D01*
X007525Y002801D01*
X007283Y002801D01*
X007404Y002921D02*
X007647Y003042D01*
X007404Y003164D01*
X008858Y003164D02*
X009222Y003164D01*
X008858Y002921D01*
X009222Y002921D01*
X009161Y002801D02*
X009040Y002801D01*
X009040Y002680D01*
X009161Y002801D02*
X009222Y002741D01*
X009222Y002619D01*
X009161Y002559D01*
X008918Y002559D01*
X008858Y002619D01*
X008858Y002741D01*
X008918Y002801D01*
X008858Y003284D02*
X008858Y003466D01*
X008918Y003526D01*
X009161Y003526D01*
X009222Y003466D01*
X009222Y003284D01*
X008858Y003284D01*
X016732Y005769D02*
X016792Y005708D01*
X016914Y005708D01*
X016974Y005769D01*
X016974Y005890D01*
X016914Y005951D01*
X016853Y005951D01*
X016732Y005890D01*
X016732Y006072D01*
X016974Y006072D01*
X017094Y006072D02*
X017094Y005830D01*
X017216Y005708D01*
X017337Y005830D01*
X017337Y006072D01*
X014673Y016794D02*
X014733Y016855D01*
X014733Y016976D01*
X014673Y017037D01*
X014551Y017037D01*
X014491Y016976D01*
X014491Y016916D01*
X014551Y016794D01*
X014369Y016794D01*
X014369Y017037D01*
X014369Y017157D02*
X014612Y017157D01*
X014733Y017278D01*
X014612Y017399D01*
X014369Y017399D01*
X003164Y014340D02*
X003164Y014097D01*
X003042Y013976D01*
X002921Y014097D01*
X002921Y014340D01*
X002801Y014340D02*
X002559Y014340D01*
X002559Y014158D01*
X002680Y014219D01*
X002741Y014219D01*
X002801Y014158D01*
X002801Y014037D01*
X002741Y013976D01*
X002619Y013976D01*
X002559Y014037D01*
D12*
X007247Y016636D02*
X007351Y016532D01*
X007393Y016532D01*
X007435Y016574D01*
X007435Y016615D01*
X007330Y016720D01*
X007396Y016743D02*
X007396Y016785D01*
X007438Y016827D01*
X007479Y016827D01*
X007500Y016764D02*
X007458Y016723D01*
X007417Y016723D01*
X007396Y016743D01*
X007396Y016827D02*
X007563Y016660D01*
X007563Y016702D02*
X007563Y016743D01*
X007542Y016764D01*
X007500Y016764D01*
X007563Y016702D02*
X007521Y016660D01*
X007479Y016660D01*
X007566Y016830D02*
X007649Y016913D01*
X007691Y016830D02*
X007566Y016955D01*
X007566Y016830D01*
X016532Y012697D02*
X016532Y012655D01*
X016574Y012613D01*
X016615Y012613D01*
X016720Y012717D01*
X016743Y012652D02*
X016785Y012652D01*
X016827Y012610D01*
X016827Y012568D01*
X016764Y012548D02*
X016723Y012589D01*
X016723Y012631D01*
X016743Y012652D01*
X016827Y012652D02*
X016660Y012485D01*
X016702Y012485D02*
X016743Y012485D01*
X016764Y012506D01*
X016764Y012548D01*
X016702Y012485D02*
X016660Y012527D01*
X016660Y012568D01*
X016788Y012440D02*
X016767Y012419D01*
X016788Y012440D02*
X016955Y012440D01*
X016976Y012461D01*
X016892Y012545D01*
X016636Y012801D02*
X016532Y012697D01*
X012794Y003613D02*
X012794Y003446D01*
X012836Y003446D01*
X012877Y003488D01*
X012877Y003530D01*
X012794Y003613D01*
X012752Y003613D01*
X012710Y003572D01*
X012710Y003530D01*
X012794Y003446D01*
X012770Y003381D02*
X012687Y003298D01*
X012728Y003339D02*
X012603Y003464D01*
X012603Y003381D01*
X012538Y003357D02*
X012496Y003357D01*
X012454Y003315D01*
X012454Y003274D01*
X012475Y003253D01*
X012517Y003253D01*
X012559Y003295D01*
X012600Y003295D01*
X012621Y003274D01*
X012621Y003232D01*
X012579Y003190D01*
X012538Y003190D01*
X012493Y003146D02*
X012389Y003250D01*
X012305Y003166D02*
X012410Y003062D01*
X012451Y003062D01*
X012493Y003104D01*
X012493Y003146D01*
X012621Y003190D02*
X012454Y003357D01*
X003464Y007445D02*
X003339Y007319D01*
X003298Y007361D02*
X003381Y007278D01*
X003381Y007445D02*
X003464Y007445D01*
X003357Y007510D02*
X003357Y007552D01*
X003315Y007594D01*
X003274Y007594D01*
X003253Y007573D01*
X003253Y007531D01*
X003295Y007489D01*
X003295Y007448D01*
X003274Y007427D01*
X003232Y007427D01*
X003190Y007468D01*
X003190Y007510D01*
X003146Y007555D02*
X003250Y007659D01*
X003166Y007743D02*
X003062Y007638D01*
X003062Y007597D01*
X003104Y007555D01*
X003146Y007555D01*
X003190Y007427D02*
X003357Y007594D01*
D13*
X003132Y008025D02*
X004192Y006965D01*
X002778Y005550D02*
X001717Y006611D01*
X005393Y002833D02*
X005544Y002833D01*
X005469Y002833D02*
X005469Y002458D01*
X005393Y002383D01*
X005318Y002383D01*
X005243Y002458D01*
X005704Y002383D02*
X005704Y002833D01*
X005929Y002833D01*
X006004Y002758D01*
X006004Y002608D01*
X005929Y002533D01*
X005704Y002533D01*
X006164Y002383D02*
X006464Y002383D01*
X006314Y002383D02*
X006314Y002833D01*
X006164Y002683D01*
X012023Y003132D02*
X013083Y004192D01*
X014497Y002778D02*
X013437Y001717D01*
X017214Y005393D02*
X017214Y005544D01*
X017214Y005469D02*
X017590Y005469D01*
X017665Y005393D01*
X017665Y005318D01*
X017590Y005243D01*
X017665Y005704D02*
X017214Y005704D01*
X017214Y005929D01*
X017289Y006004D01*
X017440Y006004D01*
X017515Y005929D01*
X017515Y005704D01*
X017440Y006164D02*
X017440Y006464D01*
X017665Y006389D02*
X017214Y006389D01*
X017440Y006164D01*
X016916Y012023D02*
X015856Y013083D01*
X017270Y014497D02*
X018330Y013437D01*
X014619Y017215D02*
X014694Y017290D01*
X014694Y017365D01*
X014619Y017440D01*
X014544Y017440D01*
X014619Y017440D02*
X014694Y017515D01*
X014694Y017590D01*
X014619Y017665D01*
X014469Y017665D01*
X014394Y017590D01*
X014234Y017590D02*
X014234Y017440D01*
X014159Y017365D01*
X013934Y017365D01*
X013934Y017215D02*
X013934Y017665D01*
X014159Y017665D01*
X014234Y017590D01*
X014394Y017290D02*
X014469Y017215D01*
X014619Y017215D01*
X013699Y017290D02*
X013699Y017665D01*
X013624Y017665D02*
X013774Y017665D01*
X013699Y017290D02*
X013624Y017215D01*
X013548Y017215D01*
X013473Y017290D01*
X008025Y016916D02*
X006965Y015856D01*
X005550Y017270D02*
X006611Y018330D01*
X002833Y014694D02*
X002833Y014394D01*
X002533Y014694D01*
X002458Y014694D01*
X002383Y014619D01*
X002383Y014469D01*
X002458Y014394D01*
X002458Y014234D02*
X002383Y014159D01*
X002383Y013934D01*
X002833Y013934D01*
X002683Y013934D02*
X002683Y014159D01*
X002608Y014234D01*
X002458Y014234D01*
X002383Y013774D02*
X002383Y013624D01*
X002383Y013699D02*
X002758Y013699D01*
X002833Y013624D01*
X002833Y013548D01*
X002758Y013473D01*
D14*
X002138Y013550D02*
X002138Y013050D01*
X001888Y012800D01*
X001388Y012800D01*
X001138Y013050D01*
X001138Y013550D01*
X001388Y013800D01*
X001138Y014050D01*
X001138Y014550D01*
X001388Y014800D01*
X001888Y014800D01*
X002138Y014550D01*
X002138Y014050D01*
X001888Y013800D01*
X002138Y013550D01*
X001888Y013800D02*
X001388Y013800D01*
X001388Y012800D02*
X001138Y012550D01*
X001138Y012050D01*
X001388Y011800D01*
X001138Y011550D01*
X001138Y011050D01*
X001388Y010800D01*
X001888Y010800D01*
X002138Y011050D01*
X002138Y011550D01*
X001888Y011800D01*
X001388Y011800D01*
X001888Y011800D02*
X002138Y012050D01*
X002138Y012550D01*
X001888Y012800D01*
X010800Y018160D02*
X010800Y018660D01*
X011050Y018910D01*
X011550Y018910D01*
X011800Y018660D01*
X012050Y018910D01*
X012550Y018910D01*
X012800Y018660D01*
X013050Y018910D01*
X013550Y018910D01*
X013800Y018660D01*
X014050Y018910D01*
X014550Y018910D01*
X014800Y018660D01*
X014800Y018160D01*
X014550Y017910D01*
X014050Y017910D01*
X013800Y018160D01*
X013550Y017910D01*
X013050Y017910D01*
X012800Y018160D01*
X012800Y018660D01*
X012800Y018160D02*
X012550Y017910D01*
X012050Y017910D01*
X011800Y018160D01*
X011550Y017910D01*
X011050Y017910D01*
X010800Y018160D01*
X011800Y018160D02*
X011800Y018660D01*
X013800Y018660D02*
X013800Y018160D01*
X018160Y009248D02*
X018660Y009248D01*
X018910Y008998D01*
X018910Y008498D01*
X018660Y008248D01*
X018910Y007998D01*
X018910Y007498D01*
X018660Y007248D01*
X018910Y006998D01*
X018910Y006498D01*
X018660Y006248D01*
X018910Y005998D01*
X018910Y005498D01*
X018660Y005248D01*
X018160Y005248D01*
X017910Y005498D01*
X017910Y005998D01*
X018160Y006248D01*
X017910Y006498D01*
X017910Y006998D01*
X018160Y007248D01*
X018660Y007248D01*
X018160Y007248D02*
X017910Y007498D01*
X017910Y007998D01*
X018160Y008248D01*
X017910Y008498D01*
X017910Y008998D01*
X018160Y009248D01*
X018160Y008248D02*
X018660Y008248D01*
X018660Y006248D02*
X018160Y006248D01*
X009248Y001888D02*
X009248Y001388D01*
X008998Y001138D01*
X008498Y001138D01*
X008248Y001388D01*
X007998Y001138D01*
X007498Y001138D01*
X007248Y001388D01*
X006998Y001138D01*
X006498Y001138D01*
X006248Y001388D01*
X005998Y001138D01*
X005498Y001138D01*
X005248Y001388D01*
X005248Y001888D01*
X005498Y002138D01*
X005998Y002138D01*
X006248Y001888D01*
X006498Y002138D01*
X006998Y002138D01*
X007248Y001888D01*
X007248Y001388D01*
X007248Y001888D02*
X007498Y002138D01*
X007998Y002138D01*
X008248Y001888D01*
X008498Y002138D01*
X008998Y002138D01*
X009248Y001888D01*
X008248Y001888D02*
X008248Y001388D01*
X006248Y001388D02*
X006248Y001888D01*
D15*
X007631Y002556D02*
X007631Y003016D01*
X007861Y003016D01*
X007938Y002940D01*
X007938Y002786D01*
X007861Y002710D01*
X007631Y002710D01*
X007784Y002710D02*
X007938Y002556D01*
X008091Y002556D02*
X008398Y002863D01*
X008398Y002940D01*
X008321Y003016D01*
X008168Y003016D01*
X008091Y002940D01*
X008091Y002556D02*
X008398Y002556D01*
X008366Y003737D02*
X008060Y003737D01*
X008213Y003737D02*
X008213Y004198D01*
X008060Y004044D01*
X007906Y003967D02*
X007829Y003891D01*
X007599Y003891D01*
X007753Y003891D02*
X007906Y003737D01*
X007906Y003967D02*
X007906Y004121D01*
X007829Y004198D01*
X007599Y004198D01*
X007599Y003737D01*
X006117Y004349D02*
X005900Y004132D01*
X005900Y004566D01*
X005845Y004620D01*
X005737Y004620D01*
X005628Y004511D01*
X005628Y004403D01*
X005520Y004294D02*
X005411Y004294D01*
X005303Y004186D01*
X005303Y004077D01*
X005520Y003860D01*
X005628Y003860D01*
X005737Y003969D01*
X005737Y004077D01*
X004913Y004326D02*
X004696Y004109D01*
X004805Y004218D02*
X004479Y004543D01*
X004479Y004326D01*
X004316Y004272D02*
X004208Y004272D01*
X004099Y004164D01*
X004099Y004055D01*
X004316Y003838D01*
X004425Y003838D01*
X004533Y003947D01*
X004534Y004055D01*
X004197Y011568D02*
X003737Y011568D01*
X003737Y011798D01*
X003814Y011875D01*
X003967Y011875D01*
X004044Y011798D01*
X004044Y011568D01*
X004044Y011721D02*
X004197Y011875D01*
X004121Y012028D02*
X004197Y012105D01*
X004197Y012258D01*
X004121Y012335D01*
X004044Y012335D01*
X003967Y012258D01*
X003967Y012182D01*
X003967Y012258D02*
X003890Y012335D01*
X003814Y012335D01*
X003737Y012258D01*
X003737Y012105D01*
X003814Y012028D01*
X003016Y011843D02*
X002863Y011690D01*
X002863Y011767D02*
X002863Y011536D01*
X003016Y011536D02*
X002556Y011536D01*
X002556Y011767D01*
X002633Y011843D01*
X002786Y011843D01*
X002863Y011767D01*
X002786Y011997D02*
X002786Y012304D01*
X003016Y012227D02*
X002556Y012227D01*
X002786Y011997D01*
X004294Y013985D02*
X004620Y014311D01*
X004294Y014311D01*
X004511Y014094D01*
X004077Y014311D02*
X003969Y014311D01*
X003860Y014419D01*
X003860Y014528D01*
X004077Y014745D01*
X004186Y014745D01*
X004294Y014636D01*
X004294Y014528D01*
X004272Y015189D02*
X004164Y015297D01*
X004164Y015406D01*
X004055Y015514D02*
X003947Y015514D01*
X003838Y015623D01*
X003838Y015731D01*
X004055Y015948D01*
X004164Y015948D01*
X004272Y015840D01*
X004272Y015731D01*
X004381Y015623D02*
X004489Y015623D01*
X004598Y015514D01*
X004598Y015406D01*
X004543Y015351D01*
X004435Y015351D01*
X004435Y015243D01*
X004381Y015189D01*
X004272Y015189D01*
X004435Y015351D02*
X004381Y015406D01*
X011568Y015851D02*
X011568Y016311D01*
X011798Y016311D01*
X011875Y016234D01*
X011875Y016081D01*
X011798Y016004D01*
X011568Y016004D01*
X011721Y016004D02*
X011875Y015851D01*
X012028Y015927D02*
X012105Y015851D01*
X012258Y015851D01*
X012335Y015927D01*
X012335Y016081D01*
X012258Y016158D01*
X012182Y016158D01*
X012028Y016081D01*
X012028Y016311D01*
X012335Y016311D01*
X012227Y017032D02*
X012304Y017108D01*
X012304Y017185D01*
X012227Y017262D01*
X011997Y017262D01*
X011997Y017108D01*
X012074Y017032D01*
X012227Y017032D01*
X011843Y017032D02*
X011690Y017185D01*
X011767Y017185D02*
X011536Y017185D01*
X011536Y017032D02*
X011536Y017492D01*
X011767Y017492D01*
X011843Y017415D01*
X011843Y017262D01*
X011767Y017185D01*
X011997Y017262D02*
X012150Y017415D01*
X012304Y017492D01*
X014013Y015782D02*
X013905Y015673D01*
X013905Y015565D01*
X014122Y015348D01*
X014230Y015348D01*
X014339Y015456D01*
X014339Y015565D01*
X014447Y015673D02*
X014339Y015782D01*
X014502Y015945D01*
X014610Y015945D01*
X014664Y015890D01*
X014664Y015782D01*
X014556Y015673D01*
X014447Y015673D01*
X014339Y015782D02*
X014339Y015999D01*
X014393Y016162D01*
X014122Y015782D02*
X014013Y015782D01*
X015108Y015696D02*
X015108Y015587D01*
X015325Y015370D01*
X015434Y015370D01*
X015542Y015479D01*
X015542Y015587D01*
X015651Y015696D02*
X015759Y015696D01*
X015868Y015804D01*
X015868Y015913D01*
X015759Y016021D01*
X015651Y016021D01*
X015597Y015967D01*
X015542Y015804D01*
X015380Y015967D01*
X015597Y016184D01*
X015325Y015804D02*
X015217Y015804D01*
X015108Y015696D01*
X015850Y008366D02*
X015927Y008366D01*
X016234Y008060D01*
X016311Y008060D01*
X016311Y007906D02*
X016157Y007753D01*
X016157Y007829D02*
X016157Y007599D01*
X016311Y007599D02*
X015850Y007599D01*
X015850Y007829D01*
X015927Y007906D01*
X016080Y007906D01*
X016157Y007829D01*
X015850Y008060D02*
X015850Y008366D01*
X017031Y008321D02*
X017031Y008168D01*
X017108Y008091D01*
X017185Y008091D01*
X017262Y008168D01*
X017262Y008321D01*
X017338Y008398D01*
X017415Y008398D01*
X017492Y008321D01*
X017492Y008168D01*
X017415Y008091D01*
X017338Y008091D01*
X017262Y008168D01*
X017262Y008321D02*
X017185Y008398D01*
X017108Y008398D01*
X017031Y008321D01*
X017108Y007938D02*
X017031Y007861D01*
X017031Y007631D01*
X017492Y007631D01*
X017338Y007631D02*
X017338Y007861D01*
X017262Y007938D01*
X017108Y007938D01*
X017338Y007784D02*
X017492Y007938D01*
X015673Y006143D02*
X015565Y006143D01*
X015348Y005926D01*
X015348Y005817D01*
X015456Y005709D01*
X015565Y005709D01*
X015673Y005600D02*
X015728Y005655D01*
X015836Y005655D01*
X015945Y005546D01*
X015945Y005438D01*
X015890Y005383D01*
X015782Y005383D01*
X015673Y005492D01*
X015673Y005600D01*
X015836Y005655D02*
X015836Y005763D01*
X015890Y005817D01*
X015999Y005817D01*
X016107Y005709D01*
X016107Y005600D01*
X016053Y005546D01*
X015945Y005546D01*
X015782Y005926D02*
X015782Y006034D01*
X015673Y006143D01*
X015696Y004940D02*
X015587Y004940D01*
X015370Y004722D01*
X015370Y004614D01*
X015479Y004506D01*
X015587Y004505D01*
X015696Y004397D02*
X015641Y004343D01*
X015696Y004397D02*
X016130Y004397D01*
X016184Y004451D01*
X015967Y004668D01*
X015804Y004723D02*
X015804Y004831D01*
X015696Y004940D01*
M02*
