G75*
G70*
%OFA0B0*%
%FSLAX24Y24*%
%IPPOS*%
%LPD*%
%AMOC8*
5,1,8,0,0,1.08239X$1,22.5*
%
%ADD10C,0.0160*%
%ADD11C,0.3200*%
%ADD12C,0.0560*%
%ADD13OC8,0.0560*%
%ADD14OC8,0.0630*%
%ADD15C,0.0630*%
%ADD16C,0.0500*%
%ADD17C,0.0317*%
%ADD18C,0.0100*%
%ADD19R,0.0317X0.0317*%
D10*
X000242Y000181D02*
X013242Y000181D01*
X013242Y029681D01*
X000242Y029681D01*
X000242Y000181D01*
X004242Y000931D02*
X004742Y000681D01*
X005442Y001781D02*
X007142Y001781D01*
X007242Y001681D01*
X007242Y006881D02*
X007142Y006981D01*
X005442Y006981D01*
X006842Y008281D02*
X006442Y008681D01*
X006842Y008281D02*
X007542Y008281D01*
X007442Y015281D02*
X006092Y015281D01*
X006142Y021781D02*
X007542Y021781D01*
D11*
X011242Y025181D03*
X011242Y017681D03*
X011242Y010181D03*
X011242Y002681D03*
X002242Y002681D03*
X002242Y010181D03*
X002242Y017681D03*
X002242Y025181D03*
D12*
X008742Y028681D03*
D13*
X008742Y027681D03*
X007742Y027681D03*
X007742Y028681D03*
X006742Y028681D03*
X006742Y027681D03*
X005742Y027681D03*
X005742Y028681D03*
X004742Y028681D03*
X004742Y027681D03*
D14*
X001992Y028681D03*
D15*
X001992Y027681D03*
D16*
X003992Y026931D02*
X003992Y028431D01*
X004242Y028681D01*
X004742Y028681D01*
X004742Y027681D02*
X004742Y027431D01*
X005442Y026731D01*
X005442Y020281D01*
X005442Y013781D01*
X005442Y006981D01*
X005442Y001781D01*
X004742Y000681D02*
X004742Y006581D01*
X004742Y008881D01*
X004742Y014681D01*
X004742Y021181D01*
X004742Y026181D01*
X003992Y026931D01*
D17*
X006142Y021781D03*
X005442Y020281D03*
X004742Y021181D03*
X007042Y022281D03*
X007542Y021781D03*
X007742Y026681D03*
X009742Y028181D03*
X009742Y022681D03*
X006992Y015681D03*
X007442Y015281D03*
X008242Y013181D03*
X007042Y008681D03*
X007542Y008281D03*
X007242Y006881D03*
X006442Y008681D03*
X006042Y006581D03*
X004742Y006581D03*
X004742Y008881D03*
X005442Y013781D03*
X004742Y014681D03*
X005992Y015181D03*
X008642Y006981D03*
X007242Y001681D03*
X009042Y000681D03*
D18*
X009042Y005881D01*
X008992Y027431D01*
X008742Y027681D01*
X008242Y028181D02*
X008742Y028681D01*
X009242Y028931D02*
X008992Y029181D01*
X008242Y029181D01*
X007742Y028681D01*
X008242Y028181D02*
X008242Y027181D01*
X008742Y026681D01*
X008742Y007081D01*
X008642Y006981D01*
X009392Y007181D02*
X009242Y026181D01*
X009242Y028931D01*
X009742Y028181D02*
X009742Y027931D01*
X009492Y027681D01*
X009492Y023431D01*
X009742Y023181D01*
X009742Y022681D01*
X008242Y025931D02*
X007742Y026431D01*
X007742Y026681D01*
X007742Y027181D02*
X007492Y027181D01*
X007242Y027431D01*
X007242Y028181D01*
X006742Y028681D01*
X006742Y027681D02*
X006742Y026681D01*
X007992Y025431D01*
X007992Y019181D01*
X006992Y018181D01*
X006992Y015681D01*
X006092Y015281D02*
X005992Y015181D01*
X007742Y013431D02*
X008242Y013931D01*
X008242Y025931D01*
X008492Y026431D02*
X007742Y027181D01*
X008492Y026431D02*
X008492Y013681D01*
X008242Y013431D01*
X008242Y013181D01*
X007742Y013431D02*
X007742Y009081D01*
X007042Y008681D01*
X007042Y022281D02*
X005992Y023331D01*
X005992Y027431D01*
X005742Y027681D01*
D19*
X009392Y007181D03*
X004242Y000931D03*
M02*
