G75*
G70*
%OFA0B0*%
%FSLAX24Y24*%
%IPPOS*%
%LPD*%
%AMOC8*
5,1,8,0,0,1.08239X$1,22.5*
%
%ADD10C,0.0160*%
%ADD11R,0.0256X0.0689*%
%ADD12R,0.0394X0.0433*%
%ADD13R,0.0433X0.0394*%
D10*
X000242Y000181D02*
X013242Y000181D01*
X013242Y029681D01*
X000242Y029681D01*
X000242Y000181D01*
D11*
X005990Y001079D03*
X006490Y001079D03*
X006990Y001079D03*
X007490Y001079D03*
X007490Y003284D03*
X006990Y003284D03*
X006490Y003284D03*
X005990Y003284D03*
X005990Y007579D03*
X006490Y007579D03*
X006990Y007579D03*
X007490Y007579D03*
X007490Y009784D03*
X006990Y009784D03*
X006490Y009784D03*
X005990Y009784D03*
X005990Y014579D03*
X006490Y014579D03*
X006990Y014579D03*
X007490Y014579D03*
X007490Y016784D03*
X006990Y016784D03*
X006490Y016784D03*
X005990Y016784D03*
X005990Y021079D03*
X006490Y021079D03*
X006990Y021079D03*
X007490Y021079D03*
X007490Y023284D03*
X006990Y023284D03*
X006490Y023284D03*
X005990Y023284D03*
D12*
X005242Y022016D03*
X005242Y021347D03*
X005242Y015516D03*
X005242Y014847D03*
X008242Y014847D03*
X008242Y015516D03*
X008242Y021347D03*
X008242Y022016D03*
X008242Y008516D03*
X008242Y007847D03*
X008242Y002016D03*
X008242Y001347D03*
X005242Y001516D03*
X005242Y000847D03*
X005242Y007547D03*
X005242Y008216D03*
D13*
X009742Y014347D03*
X009742Y015016D03*
X010742Y015016D03*
X010742Y014347D03*
X010742Y007766D03*
X010742Y007097D03*
X010742Y006016D03*
X010742Y005347D03*
X011742Y005347D03*
X011742Y006016D03*
X011742Y007097D03*
X011742Y007766D03*
X011242Y021347D03*
X011242Y022016D03*
X010242Y022016D03*
X010242Y021347D03*
M02*
