G75*
G70*
%OFA0B0*%
%FSLAX24Y24*%
%IPPOS*%
%LPD*%
%AMOC8*
5,1,8,0,0,1.08239X$1,22.5*
%
%ADD10C,0.0000*%
%ADD11C,0.3600*%
%ADD12C,0.0600*%
%ADD13C,0.0356*%
%ADD14C,0.0100*%
D10*
X000181Y000181D02*
X000181Y019866D01*
X019866Y019866D01*
X019866Y000181D01*
X000181Y000181D01*
D11*
X002567Y002575D03*
X007355Y007693D03*
X007300Y012693D03*
X012300Y012355D03*
X012355Y007355D03*
X017473Y002567D03*
X017087Y017473D03*
X002181Y017481D03*
D12*
X001544Y014300D02*
X000944Y014300D01*
X000944Y013300D02*
X001544Y013300D01*
X001544Y012300D02*
X000944Y012300D01*
X000944Y011300D02*
X001544Y011300D01*
X005748Y001938D02*
X005748Y001338D01*
X006748Y001338D02*
X006748Y001938D01*
X007748Y001938D02*
X007748Y001338D01*
X008748Y001338D02*
X008748Y001938D01*
X018110Y005748D02*
X018710Y005748D01*
X018710Y006748D02*
X018110Y006748D01*
X018110Y007748D02*
X018710Y007748D01*
X018710Y008748D02*
X018110Y008748D01*
X013906Y018110D02*
X013906Y018710D01*
X012906Y018710D02*
X012906Y018110D01*
X011906Y018110D02*
X011906Y018710D01*
X010906Y018710D02*
X010906Y018110D01*
D13*
X015142Y014355D03*
X014355Y004512D03*
X004512Y005693D03*
X005300Y015536D03*
D14*
X003063Y013300D01*
X001244Y013300D01*
X004512Y005693D02*
X006748Y003457D01*
X006748Y001638D01*
X014355Y004512D02*
X016591Y006748D01*
X018410Y006748D01*
X015142Y014355D02*
X012906Y016591D01*
X012906Y018410D01*
M02*
