G75*
G70*
%OFA0B0*%
%FSLAX24Y24*%
%IPPOS*%
%LPD*%
%AMOC8*
5,1,8,0,0,1.08239X$1,22.5*
%
%ADD10C,0.0000*%
%ADD11C,0.0050*%
%ADD12C,0.0020*%
%ADD13C,0.0060*%
%ADD14C,0.0040*%
D10*
X000181Y000181D02*
X000181Y019866D01*
X019866Y019866D01*
X019866Y000181D01*
X000181Y000181D01*
D11*
X004062Y000883D02*
X004137Y000808D01*
X004212Y000808D01*
X004287Y000883D01*
X004287Y001259D01*
X004212Y001259D02*
X004362Y001259D01*
X004523Y001259D02*
X004748Y001259D01*
X004823Y001184D01*
X004823Y001033D01*
X004748Y000958D01*
X004523Y000958D01*
X004523Y000808D02*
X004523Y001259D01*
X004983Y001109D02*
X005133Y001259D01*
X005133Y000808D01*
X004983Y000808D02*
X005283Y000808D01*
X005521Y002569D02*
X005791Y002569D01*
X005701Y002749D01*
X005701Y002839D01*
X005791Y002929D01*
X005972Y002929D01*
X006062Y002839D01*
X006062Y002659D01*
X005972Y002569D01*
X006308Y002569D02*
X006669Y002569D01*
X006849Y002749D01*
X006669Y002929D01*
X006308Y002929D01*
X006489Y003112D02*
X006489Y003203D01*
X006849Y003203D01*
X006849Y003293D02*
X006849Y003112D01*
X007096Y002929D02*
X007456Y002929D01*
X007637Y002749D01*
X007456Y002569D01*
X007096Y002569D01*
X007276Y003112D02*
X007637Y003293D01*
X007276Y003473D01*
X006308Y003203D02*
X006218Y003203D01*
X006062Y003293D02*
X005882Y003473D01*
X005521Y003473D01*
X005521Y003112D02*
X005882Y003112D01*
X006062Y003293D01*
X005521Y002929D02*
X005521Y002569D01*
X002778Y005550D02*
X001717Y006611D01*
X003132Y008025D02*
X004192Y006965D01*
X003927Y010443D02*
X003656Y010443D01*
X003656Y010984D01*
X003927Y010984D01*
X004017Y010893D01*
X004017Y010533D01*
X003927Y010443D01*
X003473Y010443D02*
X003473Y010984D01*
X003112Y010984D02*
X003112Y010443D01*
X002929Y010533D02*
X002929Y010713D01*
X002749Y010713D01*
X002929Y010533D02*
X002839Y010443D01*
X002659Y010443D01*
X002569Y010533D01*
X002569Y010893D01*
X002659Y010984D01*
X002839Y010984D01*
X002929Y010893D01*
X003112Y010984D02*
X003473Y010443D01*
X003293Y012411D02*
X003473Y012772D01*
X003112Y012772D02*
X003293Y012411D01*
X002929Y012591D02*
X002929Y012952D01*
X002749Y013199D02*
X002929Y013379D01*
X002929Y013740D01*
X003112Y013559D02*
X003203Y013559D01*
X003203Y013199D01*
X003293Y013199D02*
X003112Y013199D01*
X002749Y013199D02*
X002569Y013379D01*
X002569Y013740D01*
X002659Y013986D02*
X002569Y014076D01*
X002659Y013986D02*
X002839Y013986D01*
X002929Y014076D01*
X002929Y014256D01*
X002839Y014347D01*
X002749Y014347D01*
X002569Y014256D01*
X002569Y014527D01*
X002929Y014527D01*
X003112Y014527D02*
X003112Y014166D01*
X003293Y013986D01*
X003473Y014166D01*
X003473Y014527D01*
X003203Y013830D02*
X003203Y013740D01*
X002569Y012952D02*
X002569Y012591D01*
X002749Y012411D01*
X002929Y012591D01*
X001183Y014654D02*
X001258Y014730D01*
X001258Y014805D01*
X001183Y014880D01*
X000808Y014880D01*
X000808Y014805D02*
X000808Y014955D01*
X000808Y015115D02*
X000808Y015340D01*
X000883Y015415D01*
X001033Y015415D01*
X001108Y015340D01*
X001108Y015115D01*
X001258Y015115D02*
X000808Y015115D01*
X000883Y015575D02*
X000808Y015650D01*
X000808Y015800D01*
X000883Y015875D01*
X000958Y015875D01*
X001258Y015575D01*
X001258Y015875D01*
X005550Y017270D02*
X006611Y018330D01*
X008025Y016916D02*
X006965Y015856D01*
X010049Y015988D02*
X010139Y015898D01*
X010499Y015898D01*
X010589Y015988D01*
X010589Y016168D01*
X010499Y016259D01*
X010319Y016259D01*
X010319Y016078D01*
X010139Y016259D02*
X010049Y016168D01*
X010049Y015988D01*
X010049Y016442D02*
X010589Y016802D01*
X010049Y016802D01*
X010049Y016985D02*
X010049Y017256D01*
X010139Y017346D01*
X010499Y017346D01*
X010589Y017256D01*
X010589Y016985D01*
X010049Y016985D01*
X010049Y016442D02*
X010589Y016442D01*
X012017Y016442D02*
X012378Y016442D01*
X012558Y016622D01*
X012378Y016802D01*
X012017Y016802D01*
X012197Y016985D02*
X012558Y017166D01*
X012197Y017346D01*
X012714Y017257D02*
X012804Y017257D01*
X012985Y017257D02*
X012985Y017167D01*
X012985Y017257D02*
X013345Y017257D01*
X013345Y017167D02*
X013345Y017347D01*
X013592Y017346D02*
X013952Y017346D01*
X014133Y017166D01*
X013952Y016985D01*
X013592Y016985D01*
X013592Y016802D02*
X013592Y016442D01*
X013862Y016442D01*
X013772Y016622D01*
X013772Y016712D01*
X013862Y016802D01*
X014043Y016802D01*
X014133Y016712D01*
X014133Y016532D01*
X014043Y016442D01*
X013345Y016803D02*
X013165Y016984D01*
X012804Y016984D01*
X012804Y016623D02*
X013165Y016623D01*
X013345Y016803D01*
X014336Y018790D02*
X014411Y018790D01*
X014486Y018865D01*
X014486Y019240D01*
X014411Y019240D02*
X014561Y019240D01*
X014721Y019240D02*
X014946Y019240D01*
X015021Y019165D01*
X015021Y019015D01*
X014946Y018940D01*
X014721Y018940D01*
X014721Y018790D02*
X014721Y019240D01*
X015181Y019165D02*
X015257Y019240D01*
X015407Y019240D01*
X015482Y019165D01*
X015482Y019090D01*
X015407Y019015D01*
X015482Y018940D01*
X015482Y018865D01*
X015407Y018790D01*
X015257Y018790D01*
X015181Y018865D01*
X015332Y019015D02*
X015407Y019015D01*
X014336Y018790D02*
X014261Y018865D01*
X016876Y014497D02*
X017937Y013437D01*
X016523Y012023D02*
X015462Y013083D01*
X015988Y009606D02*
X015898Y009516D01*
X015898Y009155D01*
X015988Y009065D01*
X016168Y009065D01*
X016259Y009155D01*
X016259Y009335D01*
X016078Y009335D01*
X016259Y009516D02*
X016168Y009606D01*
X015988Y009606D01*
X016442Y009606D02*
X016442Y009065D01*
X016802Y009065D02*
X016442Y009606D01*
X016802Y009606D02*
X016802Y009065D01*
X016985Y009065D02*
X017256Y009065D01*
X017346Y009155D01*
X017346Y009516D01*
X017256Y009606D01*
X016985Y009606D01*
X016985Y009065D01*
X016802Y007637D02*
X016802Y007276D01*
X016622Y007096D01*
X016442Y007276D01*
X016442Y007637D01*
X016985Y007457D02*
X017166Y007096D01*
X017346Y007457D01*
X017257Y006940D02*
X017257Y006850D01*
X017257Y006669D02*
X017167Y006669D01*
X017257Y006669D02*
X017257Y006309D01*
X017167Y006309D02*
X017347Y006309D01*
X017346Y006062D02*
X017346Y005702D01*
X017166Y005521D01*
X016985Y005702D01*
X016985Y006062D01*
X016802Y006062D02*
X016442Y006062D01*
X016442Y005792D01*
X016622Y005882D01*
X016712Y005882D01*
X016802Y005792D01*
X016802Y005612D01*
X016712Y005521D01*
X016532Y005521D01*
X016442Y005612D01*
X016803Y006309D02*
X016984Y006489D01*
X016984Y006850D01*
X016623Y006850D02*
X016623Y006489D01*
X016803Y006309D01*
X018789Y005208D02*
X019014Y004983D01*
X019014Y005283D01*
X018789Y005208D02*
X019240Y005208D01*
X019014Y004823D02*
X019089Y004748D01*
X019089Y004523D01*
X019240Y004523D02*
X018789Y004523D01*
X018789Y004748D01*
X018864Y004823D01*
X019014Y004823D01*
X018789Y004362D02*
X018789Y004212D01*
X018789Y004287D02*
X019165Y004287D01*
X019240Y004212D01*
X019240Y004137D01*
X019165Y004062D01*
X014497Y002778D02*
X013437Y001717D01*
X012023Y003132D02*
X013083Y004192D01*
X009605Y003927D02*
X009605Y003656D01*
X009064Y003656D01*
X009064Y003927D01*
X009154Y004017D01*
X009515Y004017D01*
X009605Y003927D01*
X009605Y003473D02*
X009064Y003473D01*
X009064Y003112D02*
X009605Y003473D01*
X009605Y003112D02*
X009064Y003112D01*
X009154Y002929D02*
X009064Y002839D01*
X009064Y002659D01*
X009154Y002569D01*
X009515Y002569D01*
X009605Y002659D01*
X009605Y002839D01*
X009515Y002929D01*
X009335Y002929D01*
X009335Y002749D01*
D12*
X012347Y003125D02*
X012347Y003208D01*
X012430Y003208D01*
X012514Y003125D01*
X012538Y003190D02*
X012579Y003190D01*
X012621Y003232D01*
X012621Y003274D01*
X012666Y003318D02*
X012707Y003318D01*
X012749Y003360D01*
X012749Y003402D01*
X012728Y003423D01*
X012687Y003423D01*
X012645Y003381D01*
X012603Y003381D01*
X012582Y003402D01*
X012582Y003444D01*
X012624Y003485D01*
X012666Y003485D01*
X012710Y003530D02*
X012710Y003572D01*
X012752Y003613D01*
X012794Y003613D01*
X012815Y003593D01*
X012815Y003551D01*
X012856Y003551D01*
X012877Y003530D01*
X012877Y003488D01*
X012836Y003446D01*
X012794Y003446D01*
X012794Y003530D02*
X012815Y003551D01*
X012538Y003357D02*
X012496Y003357D01*
X012454Y003315D01*
X012454Y003274D01*
X012538Y003190D01*
X012451Y003187D02*
X012368Y003104D01*
X012347Y003125D02*
X012430Y003041D01*
X003870Y006997D02*
X003870Y007039D01*
X003828Y007081D01*
X003786Y007081D01*
X003870Y006997D02*
X003849Y006977D01*
X003682Y006977D01*
X003765Y006893D01*
X003637Y007021D02*
X003554Y007105D01*
X003595Y007063D02*
X003721Y007188D01*
X003637Y007188D01*
X003613Y007254D02*
X003446Y007254D01*
X003426Y007233D01*
X003402Y007299D02*
X003423Y007319D01*
X003423Y007361D01*
X003381Y007403D01*
X003381Y007445D01*
X003402Y007465D01*
X003444Y007465D01*
X003485Y007424D01*
X003485Y007382D01*
X003551Y007358D02*
X003634Y007275D01*
X003613Y007254D01*
X003402Y007299D02*
X003360Y007299D01*
X003318Y007340D01*
X003318Y007382D01*
X003274Y007427D02*
X003232Y007427D01*
X003190Y007468D01*
X003190Y007510D01*
X003274Y007594D01*
X003315Y007594D01*
X003357Y007552D01*
X003357Y007510D01*
X003208Y007617D02*
X003208Y007701D01*
X003125Y007701D01*
X003041Y007617D01*
X003104Y007680D02*
X003187Y007596D01*
X003208Y007617D02*
X003125Y007534D01*
X007244Y016383D02*
X007160Y016466D01*
X007160Y016550D01*
X007244Y016550D01*
X007327Y016466D01*
X007351Y016532D02*
X007393Y016532D01*
X007435Y016574D01*
X007435Y016615D01*
X007479Y016660D02*
X007521Y016660D01*
X007563Y016702D01*
X007563Y016743D01*
X007542Y016764D01*
X007500Y016764D01*
X007458Y016723D01*
X007417Y016723D01*
X007396Y016743D01*
X007396Y016785D01*
X007438Y016827D01*
X007479Y016827D01*
X007545Y016851D02*
X007545Y016934D01*
X007670Y016809D01*
X007628Y016767D02*
X007712Y016851D01*
X007351Y016699D02*
X007309Y016699D01*
X007268Y016657D01*
X007268Y016615D01*
X007351Y016532D01*
X007265Y016529D02*
X007181Y016445D01*
X015989Y012804D02*
X016073Y012887D01*
X016156Y012887D01*
X016156Y012804D01*
X016073Y012720D01*
X016138Y012697D02*
X016138Y012655D01*
X016180Y012613D01*
X016222Y012613D01*
X016266Y012568D02*
X016266Y012527D01*
X016308Y012485D01*
X016350Y012485D01*
X016371Y012506D01*
X016371Y012548D01*
X016329Y012589D01*
X016329Y012631D01*
X016350Y012652D01*
X016391Y012652D01*
X016433Y012610D01*
X016433Y012568D01*
X016478Y012524D02*
X016520Y012524D01*
X016561Y012482D01*
X016561Y012440D01*
X016540Y012419D01*
X016374Y012419D01*
X016457Y012336D01*
X016305Y012697D02*
X016305Y012738D01*
X016263Y012780D01*
X016222Y012780D01*
X016138Y012697D01*
X016135Y012783D02*
X016052Y012866D01*
D13*
X018160Y009248D02*
X018660Y009248D01*
X018910Y008998D01*
X018910Y008498D01*
X018660Y008248D01*
X018910Y007998D01*
X018910Y007498D01*
X018660Y007248D01*
X018910Y006998D01*
X018910Y006498D01*
X018660Y006248D01*
X018910Y005998D01*
X018910Y005498D01*
X018660Y005248D01*
X018160Y005248D01*
X017910Y005498D01*
X017910Y005998D01*
X018160Y006248D01*
X017910Y006498D01*
X017910Y006998D01*
X018160Y007248D01*
X018660Y007248D01*
X018160Y007248D02*
X017910Y007498D01*
X017910Y007998D01*
X018160Y008248D01*
X017910Y008498D01*
X017910Y008998D01*
X018160Y009248D01*
X018160Y008248D02*
X018660Y008248D01*
X018660Y006248D02*
X018160Y006248D01*
X009248Y001888D02*
X009248Y001388D01*
X008998Y001138D01*
X008498Y001138D01*
X008248Y001388D01*
X007998Y001138D01*
X007498Y001138D01*
X007248Y001388D01*
X006998Y001138D01*
X006498Y001138D01*
X006248Y001388D01*
X005998Y001138D01*
X005498Y001138D01*
X005248Y001388D01*
X005248Y001888D01*
X005498Y002138D01*
X005998Y002138D01*
X006248Y001888D01*
X006498Y002138D01*
X006998Y002138D01*
X007248Y001888D01*
X007248Y001388D01*
X007248Y001888D02*
X007498Y002138D01*
X007998Y002138D01*
X008248Y001888D01*
X008498Y002138D01*
X008998Y002138D01*
X009248Y001888D01*
X008248Y001888D02*
X008248Y001388D01*
X006248Y001388D02*
X006248Y001888D01*
X001888Y010800D02*
X001388Y010800D01*
X001138Y011050D01*
X001138Y011550D01*
X001388Y011800D01*
X001138Y012050D01*
X001138Y012550D01*
X001388Y012800D01*
X001138Y013050D01*
X001138Y013550D01*
X001388Y013800D01*
X001138Y014050D01*
X001138Y014550D01*
X001388Y014800D01*
X001888Y014800D01*
X002138Y014550D01*
X002138Y014050D01*
X001888Y013800D01*
X002138Y013550D01*
X002138Y013050D01*
X001888Y012800D01*
X001388Y012800D01*
X001888Y012800D02*
X002138Y012550D01*
X002138Y012050D01*
X001888Y011800D01*
X002138Y011550D01*
X002138Y011050D01*
X001888Y010800D01*
X001888Y011800D02*
X001388Y011800D01*
X001388Y013800D02*
X001888Y013800D01*
X010406Y018160D02*
X010406Y018660D01*
X010656Y018910D01*
X011156Y018910D01*
X011406Y018660D01*
X011656Y018910D01*
X012156Y018910D01*
X012406Y018660D01*
X012656Y018910D01*
X013156Y018910D01*
X013406Y018660D01*
X013656Y018910D01*
X014156Y018910D01*
X014406Y018660D01*
X014406Y018160D01*
X014156Y017910D01*
X013656Y017910D01*
X013406Y018160D01*
X013156Y017910D01*
X012656Y017910D01*
X012406Y018160D01*
X012406Y018660D01*
X012406Y018160D02*
X012156Y017910D01*
X011656Y017910D01*
X011406Y018160D01*
X011156Y017910D01*
X010656Y017910D01*
X010406Y018160D01*
X011406Y018160D02*
X011406Y018660D01*
X013406Y018660D02*
X013406Y018160D01*
D14*
X011910Y016705D02*
X011757Y016628D01*
X011603Y016474D01*
X011833Y016474D01*
X011910Y016398D01*
X011910Y016321D01*
X011833Y016244D01*
X011680Y016244D01*
X011603Y016321D01*
X011603Y016474D01*
X011450Y016474D02*
X011373Y016398D01*
X011143Y016398D01*
X011296Y016398D02*
X011450Y016244D01*
X011450Y016474D02*
X011450Y016628D01*
X011373Y016705D01*
X011143Y016705D01*
X011143Y016244D01*
X011174Y015524D02*
X011404Y015524D01*
X011481Y015447D01*
X011481Y015293D01*
X011404Y015217D01*
X011174Y015217D01*
X011328Y015217D02*
X011481Y015063D01*
X011635Y015140D02*
X011711Y015063D01*
X011865Y015063D01*
X011941Y015140D01*
X011941Y015293D01*
X011865Y015370D01*
X011788Y015370D01*
X011635Y015293D01*
X011635Y015524D01*
X011941Y015524D01*
X011174Y015524D02*
X011174Y015063D01*
X013511Y015565D02*
X013728Y015348D01*
X013837Y015348D01*
X013945Y015456D01*
X013945Y015565D01*
X014054Y015673D02*
X013945Y015782D01*
X014108Y015945D01*
X014216Y015945D01*
X014271Y015890D01*
X014271Y015782D01*
X014162Y015673D01*
X014054Y015673D01*
X013945Y015782D02*
X013945Y015999D01*
X013999Y016162D01*
X013728Y015782D02*
X013620Y015782D01*
X013511Y015673D01*
X013511Y015565D01*
X014715Y015587D02*
X014932Y015370D01*
X015040Y015370D01*
X015149Y015479D01*
X015149Y015587D01*
X015257Y015696D02*
X015366Y015696D01*
X015474Y015804D01*
X015474Y015913D01*
X015366Y016021D01*
X015257Y016021D01*
X015203Y015967D01*
X015149Y015804D01*
X014986Y015967D01*
X015203Y016184D01*
X014932Y015804D02*
X014823Y015804D01*
X014715Y015696D01*
X014715Y015587D01*
X015063Y008366D02*
X015140Y008366D01*
X015447Y008060D01*
X015523Y008060D01*
X015523Y007906D02*
X015370Y007753D01*
X015370Y007829D02*
X015370Y007599D01*
X015523Y007599D02*
X015063Y007599D01*
X015063Y007829D01*
X015140Y007906D01*
X015293Y007906D01*
X015370Y007829D01*
X015063Y008060D02*
X015063Y008366D01*
X016244Y008321D02*
X016244Y008168D01*
X016321Y008091D01*
X016397Y008091D01*
X016474Y008168D01*
X016474Y008321D01*
X016551Y008398D01*
X016628Y008398D01*
X016704Y008321D01*
X016704Y008168D01*
X016628Y008091D01*
X016551Y008091D01*
X016474Y008168D01*
X016474Y008321D02*
X016397Y008398D01*
X016321Y008398D01*
X016244Y008321D01*
X016321Y007938D02*
X016244Y007861D01*
X016244Y007631D01*
X016704Y007631D01*
X016551Y007631D02*
X016551Y007861D01*
X016474Y007938D01*
X016321Y007938D01*
X016551Y007784D02*
X016704Y007938D01*
X015673Y006143D02*
X015565Y006143D01*
X015348Y005926D01*
X015348Y005817D01*
X015456Y005709D01*
X015565Y005709D01*
X015673Y005600D02*
X015728Y005655D01*
X015836Y005655D01*
X015945Y005546D01*
X015945Y005438D01*
X015890Y005383D01*
X015782Y005383D01*
X015673Y005492D01*
X015673Y005600D01*
X015836Y005655D02*
X015836Y005763D01*
X015890Y005817D01*
X015999Y005817D01*
X016107Y005709D01*
X016107Y005600D01*
X016053Y005546D01*
X015945Y005546D01*
X015782Y005926D02*
X015782Y006034D01*
X015673Y006143D01*
X015696Y004940D02*
X015587Y004940D01*
X015370Y004722D01*
X015370Y004614D01*
X015479Y004506D01*
X015587Y004505D01*
X015696Y004397D02*
X015641Y004343D01*
X015696Y004397D02*
X016130Y004397D01*
X016184Y004451D01*
X015967Y004668D01*
X015804Y004723D02*
X015804Y004831D01*
X015696Y004940D01*
X008366Y004525D02*
X008060Y004525D01*
X008213Y004525D02*
X008213Y004985D01*
X008060Y004832D01*
X007906Y004908D02*
X007906Y004755D01*
X007829Y004678D01*
X007599Y004678D01*
X007599Y004525D02*
X007599Y004985D01*
X007829Y004985D01*
X007906Y004908D01*
X007753Y004678D02*
X007906Y004525D01*
X007861Y003804D02*
X007631Y003804D01*
X007631Y003344D01*
X007631Y003497D02*
X007861Y003497D01*
X007938Y003574D01*
X007938Y003727D01*
X007861Y003804D01*
X008091Y003727D02*
X008168Y003804D01*
X008321Y003804D01*
X008398Y003727D01*
X008398Y003650D01*
X008091Y003344D01*
X008398Y003344D01*
X007938Y003344D02*
X007784Y003497D01*
X006117Y004349D02*
X005900Y004132D01*
X005900Y004566D01*
X005845Y004620D01*
X005737Y004620D01*
X005628Y004511D01*
X005628Y004403D01*
X005520Y004294D02*
X005411Y004294D01*
X005303Y004186D01*
X005303Y004077D01*
X005520Y003860D01*
X005628Y003860D01*
X005737Y003969D01*
X005737Y004077D01*
X004913Y004326D02*
X004696Y004109D01*
X004805Y004218D02*
X004479Y004543D01*
X004479Y004326D01*
X004316Y004272D02*
X004208Y004272D01*
X004099Y004164D01*
X004099Y004055D01*
X004316Y003838D01*
X004425Y003838D01*
X004533Y003947D01*
X004534Y004055D01*
X004524Y011568D02*
X004524Y011798D01*
X004601Y011875D01*
X004754Y011875D01*
X004831Y011798D01*
X004831Y011568D01*
X004831Y011721D02*
X004985Y011875D01*
X004908Y012028D02*
X004985Y012105D01*
X004985Y012258D01*
X004908Y012335D01*
X004831Y012335D01*
X004754Y012258D01*
X004754Y012182D01*
X004754Y012258D02*
X004678Y012335D01*
X004601Y012335D01*
X004524Y012258D01*
X004524Y012105D01*
X004601Y012028D01*
X004524Y011568D02*
X004985Y011568D01*
X003804Y011536D02*
X003343Y011536D01*
X003343Y011767D01*
X003420Y011843D01*
X003573Y011843D01*
X003650Y011767D01*
X003650Y011536D01*
X003650Y011690D02*
X003804Y011843D01*
X003573Y011997D02*
X003573Y012304D01*
X003343Y012227D02*
X003573Y011997D01*
X003804Y012227D02*
X003343Y012227D01*
X004294Y013985D02*
X004620Y014311D01*
X004294Y014311D01*
X004511Y014094D01*
X004077Y014311D02*
X003969Y014311D01*
X003860Y014419D01*
X003860Y014528D01*
X004077Y014745D01*
X004186Y014745D01*
X004294Y014636D01*
X004294Y014528D01*
X004272Y015189D02*
X004164Y015297D01*
X004164Y015406D01*
X004055Y015514D02*
X003947Y015514D01*
X003838Y015623D01*
X003838Y015731D01*
X004055Y015948D01*
X004164Y015948D01*
X004272Y015840D01*
X004272Y015731D01*
X004381Y015623D02*
X004489Y015623D01*
X004598Y015514D01*
X004598Y015406D01*
X004543Y015351D01*
X004435Y015351D01*
X004435Y015243D01*
X004381Y015189D01*
X004272Y015189D01*
X004435Y015351D02*
X004381Y015406D01*
M02*
