G75*
G70*
%OFA0B0*%
%FSLAX24Y24*%
%IPPOS*%
%LPD*%
%AMOC8*
5,1,8,0,0,1.08239X$1,22.5*
%
%ADD10C,0.0000*%
%ADD11R,0.0689X0.0256*%
%ADD12C,0.3600*%
%ADD13C,0.0600*%
%ADD14R,0.0433X0.0394*%
%ADD15R,0.0394X0.0433*%
%ADD16C,0.0150*%
%ADD17C,0.0197*%
%ADD18C,0.0100*%
%ADD19C,0.0356*%
%ADD20C,0.1969*%
%ADD21C,0.1575*%
D10*
X000181Y000181D02*
X000181Y019866D01*
X019866Y019866D01*
X019866Y000181D01*
X000181Y000181D01*
D11*
G36*
X003355Y005144D02*
X002870Y005629D01*
X003051Y005810D01*
X003536Y005325D01*
X003355Y005144D01*
G37*
G36*
X003708Y005497D02*
X003223Y005982D01*
X003404Y006163D01*
X003889Y005678D01*
X003708Y005497D01*
G37*
G36*
X004062Y005851D02*
X003577Y006336D01*
X003758Y006517D01*
X004243Y006032D01*
X004062Y005851D01*
G37*
G36*
X004415Y006204D02*
X003930Y006689D01*
X004111Y006870D01*
X004596Y006385D01*
X004415Y006204D01*
G37*
G36*
X002856Y007763D02*
X002371Y008248D01*
X002552Y008429D01*
X003037Y007944D01*
X002856Y007763D01*
G37*
G36*
X002503Y007410D02*
X002018Y007895D01*
X002199Y008076D01*
X002684Y007591D01*
X002503Y007410D01*
G37*
G36*
X002149Y007056D02*
X001664Y007541D01*
X001845Y007722D01*
X002330Y007237D01*
X002149Y007056D01*
G37*
G36*
X001796Y006703D02*
X001311Y007188D01*
X001492Y007369D01*
X001977Y006884D01*
X001796Y006703D01*
G37*
G36*
X006204Y015633D02*
X006689Y016118D01*
X006870Y015937D01*
X006385Y015452D01*
X006204Y015633D01*
G37*
G36*
X005851Y015986D02*
X006336Y016471D01*
X006517Y016290D01*
X006032Y015805D01*
X005851Y015986D01*
G37*
G36*
X005497Y016340D02*
X005982Y016825D01*
X006163Y016644D01*
X005678Y016159D01*
X005497Y016340D01*
G37*
G36*
X005144Y016693D02*
X005629Y017178D01*
X005810Y016997D01*
X005325Y016512D01*
X005144Y016693D01*
G37*
G36*
X006703Y018252D02*
X007188Y018737D01*
X007369Y018556D01*
X006884Y018071D01*
X006703Y018252D01*
G37*
G36*
X007056Y017899D02*
X007541Y018384D01*
X007722Y018203D01*
X007237Y017718D01*
X007056Y017899D01*
G37*
G36*
X007410Y017545D02*
X007895Y018030D01*
X008076Y017849D01*
X007591Y017364D01*
X007410Y017545D01*
G37*
G36*
X007763Y017192D02*
X008248Y017677D01*
X008429Y017496D01*
X007944Y017011D01*
X007763Y017192D01*
G37*
G36*
X015239Y013844D02*
X015724Y013359D01*
X015543Y013178D01*
X015058Y013663D01*
X015239Y013844D01*
G37*
G36*
X015592Y014197D02*
X016077Y013712D01*
X015896Y013531D01*
X015411Y014016D01*
X015592Y014197D01*
G37*
G36*
X015946Y014551D02*
X016431Y014066D01*
X016250Y013885D01*
X015765Y014370D01*
X015946Y014551D01*
G37*
G36*
X016300Y014904D02*
X016785Y014419D01*
X016604Y014238D01*
X016119Y014723D01*
X016300Y014904D01*
G37*
G36*
X017859Y013345D02*
X018344Y012860D01*
X018163Y012679D01*
X017678Y013164D01*
X017859Y013345D01*
G37*
G36*
X017505Y012992D02*
X017990Y012507D01*
X017809Y012326D01*
X017324Y012811D01*
X017505Y012992D01*
G37*
G36*
X017151Y012638D02*
X017636Y012153D01*
X017455Y011972D01*
X016970Y012457D01*
X017151Y012638D01*
G37*
G36*
X016798Y012285D02*
X017283Y011800D01*
X017102Y011619D01*
X016617Y012104D01*
X016798Y012285D01*
G37*
G36*
X013844Y004415D02*
X013359Y003930D01*
X013178Y004111D01*
X013663Y004596D01*
X013844Y004415D01*
G37*
G36*
X014197Y004062D02*
X013712Y003577D01*
X013531Y003758D01*
X014016Y004243D01*
X014197Y004062D01*
G37*
G36*
X014551Y003708D02*
X014066Y003223D01*
X013885Y003404D01*
X014370Y003889D01*
X014551Y003708D01*
G37*
G36*
X014904Y003355D02*
X014419Y002870D01*
X014238Y003051D01*
X014723Y003536D01*
X014904Y003355D01*
G37*
G36*
X013345Y001796D02*
X012860Y001311D01*
X012679Y001492D01*
X013164Y001977D01*
X013345Y001796D01*
G37*
G36*
X012992Y002149D02*
X012507Y001664D01*
X012326Y001845D01*
X012811Y002330D01*
X012992Y002149D01*
G37*
G36*
X012638Y002503D02*
X012153Y002018D01*
X011972Y002199D01*
X012457Y002684D01*
X012638Y002503D01*
G37*
G36*
X012285Y002856D02*
X011800Y002371D01*
X011619Y002552D01*
X012104Y003037D01*
X012285Y002856D01*
G37*
D12*
X012355Y007355D03*
X012300Y012355D03*
X007693Y012693D03*
X007355Y007693D03*
X002567Y002575D03*
X002575Y017481D03*
X017087Y017473D03*
X017473Y002567D03*
D13*
X018110Y005748D02*
X018710Y005748D01*
X018710Y006748D02*
X018110Y006748D01*
X018110Y007748D02*
X018710Y007748D01*
X018710Y008748D02*
X018110Y008748D01*
X013906Y018110D02*
X013906Y018710D01*
X012906Y018710D02*
X012906Y018110D01*
X011906Y018110D02*
X011906Y018710D01*
X010906Y018710D02*
X010906Y018110D01*
X001938Y014300D02*
X001338Y014300D01*
X001338Y013300D02*
X001938Y013300D01*
X001938Y012300D02*
X001338Y012300D01*
X001338Y011300D02*
X001938Y011300D01*
X005748Y001938D02*
X005748Y001338D01*
X006748Y001338D02*
X006748Y001938D01*
X007748Y001938D02*
X007748Y001338D01*
X008748Y001338D02*
X008748Y001938D01*
D14*
G36*
X005357Y004971D02*
X005662Y005276D01*
X005941Y004997D01*
X005636Y004692D01*
X005357Y004971D01*
G37*
G36*
X004883Y004497D02*
X005188Y004802D01*
X005467Y004523D01*
X005162Y004218D01*
X004883Y004497D01*
G37*
G36*
X004153Y004948D02*
X004458Y005253D01*
X004737Y004974D01*
X004432Y004669D01*
X004153Y004948D01*
G37*
G36*
X003680Y004475D02*
X003985Y004780D01*
X004264Y004501D01*
X003959Y004196D01*
X003680Y004475D01*
G37*
X004174Y011532D03*
X004174Y012201D03*
X005355Y012233D03*
X005355Y011563D03*
G36*
X004971Y014691D02*
X005276Y014386D01*
X004997Y014107D01*
X004692Y014412D01*
X004971Y014691D01*
G37*
G36*
X004497Y015164D02*
X004802Y014859D01*
X004523Y014580D01*
X004218Y014885D01*
X004497Y015164D01*
G37*
G36*
X004948Y015895D02*
X005253Y015590D01*
X004974Y015311D01*
X004669Y015616D01*
X004948Y015895D01*
G37*
G36*
X004475Y016368D02*
X004780Y016063D01*
X004501Y015784D01*
X004196Y016089D01*
X004475Y016368D01*
G37*
G36*
X014297Y015077D02*
X013992Y014772D01*
X013713Y015051D01*
X014018Y015356D01*
X014297Y015077D01*
G37*
G36*
X014771Y015550D02*
X014466Y015245D01*
X014187Y015524D01*
X014492Y015829D01*
X014771Y015550D01*
G37*
G36*
X015501Y015099D02*
X015196Y014794D01*
X014917Y015073D01*
X015222Y015378D01*
X015501Y015099D01*
G37*
G36*
X015974Y015573D02*
X015669Y015268D01*
X015390Y015547D01*
X015695Y015852D01*
X015974Y015573D01*
G37*
X015874Y008516D03*
X015874Y007847D03*
X014693Y007815D03*
X014693Y008485D03*
G36*
X015077Y005357D02*
X014772Y005662D01*
X015051Y005941D01*
X015356Y005636D01*
X015077Y005357D01*
G37*
G36*
X015550Y004883D02*
X015245Y005188D01*
X015524Y005467D01*
X015829Y005162D01*
X015550Y004883D01*
G37*
G36*
X015099Y004153D02*
X014794Y004458D01*
X015073Y004737D01*
X015378Y004432D01*
X015099Y004153D01*
G37*
G36*
X015573Y003680D02*
X015268Y003985D01*
X015547Y004264D01*
X015852Y003959D01*
X015573Y003680D01*
G37*
D15*
X008516Y004174D03*
X007847Y004174D03*
X007815Y005355D03*
X008485Y005355D03*
X011170Y014693D03*
X011839Y014693D03*
X011807Y015874D03*
X011138Y015874D03*
D16*
X013567Y015929D02*
X013567Y015536D01*
X014006Y015097D01*
X014005Y015064D01*
X014355Y014715D01*
X014355Y014355D01*
X015199Y013511D01*
X015391Y013511D01*
X016098Y014218D02*
X015229Y015086D01*
X015209Y015086D01*
X015682Y015560D02*
X015682Y015783D01*
X015536Y015929D01*
X014871Y015929D01*
X014479Y015537D01*
X014748Y015807D01*
X014748Y019079D01*
X014355Y019473D01*
X011599Y019473D01*
X010906Y018780D01*
X010906Y018410D01*
X013567Y015929D02*
X013961Y016323D01*
X013961Y018355D01*
X013906Y018410D01*
X015682Y015560D02*
X015906Y015560D01*
X016323Y015142D01*
X016323Y014700D01*
X016452Y014571D01*
X018410Y008748D02*
X018780Y008748D01*
X019473Y008055D01*
X019473Y005300D01*
X019079Y004906D01*
X015807Y004906D01*
X015537Y005175D01*
X015929Y004783D01*
X015929Y004118D01*
X015783Y003972D01*
X015560Y003972D01*
X015560Y003749D01*
X015142Y003331D01*
X014700Y003331D01*
X014571Y003203D01*
X014218Y003556D02*
X015086Y004425D01*
X015086Y004445D01*
X014715Y005300D02*
X014355Y005300D01*
X013511Y004455D01*
X013511Y004263D01*
X014715Y005300D02*
X015064Y005649D01*
X015097Y005649D01*
X015536Y006087D01*
X015929Y006087D01*
X016323Y005693D01*
X018355Y005693D01*
X018410Y005748D01*
X008748Y001638D02*
X008748Y001268D01*
X008055Y000575D01*
X005300Y000575D01*
X004906Y000969D01*
X004906Y004241D01*
X005175Y004510D01*
X004783Y004118D01*
X004118Y004118D01*
X003972Y004265D01*
X003972Y004488D01*
X003749Y004488D01*
X003331Y004906D01*
X003331Y005348D01*
X003203Y005477D01*
X003556Y005830D02*
X004425Y004961D01*
X004445Y004961D01*
X005300Y005333D02*
X005300Y005693D01*
X004455Y006537D01*
X004263Y006537D01*
X005300Y005333D02*
X005649Y004984D01*
X005649Y004950D01*
X006087Y004512D01*
X006087Y004118D01*
X005693Y003725D01*
X005693Y001693D01*
X005748Y001638D01*
X001638Y011300D02*
X001268Y011300D01*
X000575Y011992D01*
X000575Y014748D01*
X000969Y015142D01*
X004241Y015142D01*
X004510Y014872D01*
X004118Y015265D01*
X004118Y015929D01*
X004265Y016076D01*
X004488Y016076D01*
X004488Y016299D01*
X004906Y016717D01*
X005348Y016717D01*
X005477Y016845D01*
X005830Y016492D02*
X004961Y015623D01*
X004961Y015603D01*
X005333Y014748D02*
X005693Y014748D01*
X006537Y015592D01*
X006537Y015785D01*
X005333Y014748D02*
X004984Y014399D01*
X004950Y014399D01*
X004512Y013961D01*
X004118Y013961D01*
X003725Y014355D01*
X001693Y014355D01*
X001638Y014300D01*
D17*
X005434Y018158D02*
X006526Y018158D01*
X006517Y018174D02*
X006543Y018129D01*
X006652Y018020D01*
X006761Y017911D01*
X006806Y017885D01*
X006856Y017872D01*
X006857Y017872D01*
X006857Y017871D01*
X006870Y017821D01*
X006896Y017776D01*
X007005Y017667D01*
X007389Y018051D01*
X007389Y018051D01*
X007266Y018174D01*
X007036Y018404D01*
X007036Y018404D01*
X007036Y018405D01*
X007419Y018788D01*
X007311Y018897D01*
X007265Y018923D01*
X007215Y018937D01*
X007163Y018937D01*
X007112Y018923D01*
X007067Y018897D01*
X006805Y018635D01*
X007035Y018405D01*
X007035Y018404D01*
X007035Y018404D01*
X006652Y018020D01*
X007035Y018404D01*
X006805Y018635D01*
X006543Y018373D01*
X006517Y018328D01*
X006503Y018277D01*
X006503Y018225D01*
X006517Y018174D01*
X006531Y018353D02*
X005238Y018353D01*
X005043Y018548D02*
X006718Y018548D01*
X006891Y018548D02*
X006892Y018548D01*
X006914Y018744D02*
X004847Y018744D01*
X004652Y018939D02*
X008309Y018939D01*
X008114Y018744D02*
X007464Y018744D01*
X007420Y018788D02*
X007528Y018679D01*
X007555Y018634D01*
X007568Y018583D01*
X007568Y018583D01*
X007568Y018583D01*
X007619Y018570D01*
X007664Y018543D01*
X007773Y018435D01*
X007389Y018051D01*
X007390Y018051D01*
X007773Y018434D01*
X007789Y018419D01*
X008843Y019473D01*
X004512Y019473D01*
X004512Y019079D01*
X006087Y017504D01*
X006874Y017504D01*
X007021Y017651D01*
X007005Y017667D01*
X007389Y018050D01*
X007389Y018051D01*
X007266Y018173D01*
X007266Y018173D01*
X007036Y018404D01*
X007420Y018788D01*
X007375Y018744D02*
X007375Y018744D01*
X007180Y018548D02*
X007180Y018548D01*
X007086Y018353D02*
X007087Y018353D01*
X006985Y018353D02*
X006984Y018353D01*
X006789Y018158D02*
X006789Y018158D01*
X006710Y017962D02*
X005629Y017962D01*
X005824Y017767D02*
X006905Y017767D01*
X006942Y017571D02*
X006020Y017571D01*
X007105Y017767D02*
X007106Y017767D01*
X007300Y017962D02*
X007301Y017962D01*
X007282Y018158D02*
X007282Y018158D01*
X007496Y018158D02*
X007496Y018158D01*
X007691Y018353D02*
X007692Y018353D01*
X007655Y018548D02*
X007919Y018548D01*
X008269Y017898D02*
X009630Y017898D01*
X009630Y014748D01*
X008055Y015142D01*
X007268Y015142D01*
X007268Y017111D01*
X007415Y017257D01*
X007468Y017204D01*
X007513Y017178D01*
X007563Y017165D01*
X007564Y017165D01*
X007564Y017164D01*
X007577Y017114D01*
X007603Y017069D01*
X007712Y016960D01*
X008096Y017343D01*
X007712Y016959D01*
X007821Y016851D01*
X007867Y016825D01*
X007917Y016811D01*
X007969Y016811D01*
X008020Y016825D01*
X008065Y016851D01*
X008327Y017113D01*
X008589Y017375D01*
X008615Y017420D01*
X008629Y017471D01*
X008629Y017523D01*
X008615Y017573D01*
X008589Y017618D01*
X008480Y017727D01*
X008097Y017344D01*
X008096Y017344D01*
X008096Y017344D01*
X007866Y017574D01*
X007799Y017641D01*
X007798Y017641D01*
X007865Y017574D01*
X007865Y017574D01*
X008096Y017344D01*
X008480Y017727D01*
X008371Y017836D01*
X008326Y017862D01*
X008275Y017876D01*
X008275Y017876D01*
X008275Y017876D01*
X008269Y017898D01*
X008441Y017767D02*
X009630Y017767D01*
X009630Y017571D02*
X008616Y017571D01*
X008590Y017376D02*
X009630Y017376D01*
X009630Y017181D02*
X008395Y017181D01*
X008327Y017113D02*
X008097Y017343D01*
X008096Y017343D01*
X008096Y017343D01*
X008327Y017113D01*
X008259Y017181D02*
X008259Y017181D01*
X008199Y016985D02*
X009630Y016985D01*
X009630Y016790D02*
X007268Y016790D01*
X007268Y016985D02*
X007687Y016985D01*
X007738Y016985D02*
X007738Y016985D01*
X007933Y017181D02*
X007934Y017181D01*
X008063Y017376D02*
X008064Y017376D01*
X008129Y017376D02*
X008129Y017376D01*
X008324Y017571D02*
X008324Y017571D01*
X007869Y017571D02*
X007868Y017571D01*
X007509Y017181D02*
X007338Y017181D01*
X007268Y016594D02*
X009630Y016594D01*
X009630Y016399D02*
X007268Y016399D01*
X007268Y016204D02*
X009630Y016204D01*
X009630Y016008D02*
X007268Y016008D01*
X007268Y015813D02*
X009630Y015813D01*
X009630Y015618D02*
X007268Y015618D01*
X007268Y015422D02*
X009630Y015422D01*
X009630Y015227D02*
X007268Y015227D01*
X008498Y015031D02*
X009630Y015031D01*
X009630Y014836D02*
X009280Y014836D01*
X006184Y016026D02*
X006184Y016138D01*
X004512Y019135D02*
X008505Y019135D01*
X008700Y019330D02*
X004512Y019330D01*
X005300Y009630D02*
X002150Y009630D01*
X002150Y008269D01*
X002171Y008275D01*
X002172Y008275D01*
X002172Y008275D01*
X002185Y008326D01*
X002211Y008371D01*
X002320Y008480D01*
X002704Y008096D01*
X002474Y007865D01*
X002407Y007799D01*
X002407Y007799D01*
X002473Y007866D01*
X002704Y008096D01*
X002704Y008096D01*
X002705Y008096D01*
X003088Y007712D01*
X002704Y008096D01*
X002704Y008097D01*
X002321Y008480D01*
X002429Y008589D01*
X002475Y008615D01*
X002525Y008629D01*
X002577Y008629D01*
X002628Y008615D01*
X002673Y008589D01*
X002935Y008327D01*
X002704Y008097D01*
X002705Y008096D01*
X002935Y008327D01*
X003197Y008065D01*
X003223Y008020D01*
X003237Y007969D01*
X003237Y007917D01*
X003223Y007867D01*
X003197Y007821D01*
X003088Y007712D01*
X002979Y007603D01*
X002934Y007577D01*
X002884Y007564D01*
X002883Y007564D01*
X002883Y007563D01*
X002870Y007513D01*
X002844Y007468D01*
X002791Y007415D01*
X002937Y007268D01*
X004906Y007268D01*
X004906Y008055D01*
X005300Y009630D01*
X005282Y009560D02*
X002150Y009560D01*
X002150Y009365D02*
X005233Y009365D01*
X005184Y009170D02*
X002150Y009170D01*
X002150Y008974D02*
X005136Y008974D01*
X005087Y008779D02*
X002150Y008779D01*
X002150Y008583D02*
X002424Y008583D01*
X002412Y008388D02*
X002413Y008388D01*
X002228Y008388D02*
X002150Y008388D01*
X002605Y007997D02*
X002605Y007997D01*
X002608Y008193D02*
X002608Y008193D01*
X002800Y008193D02*
X002801Y008193D01*
X002803Y007997D02*
X002804Y007997D01*
X002998Y007802D02*
X002999Y007802D01*
X003178Y007802D02*
X004906Y007802D01*
X004906Y007997D02*
X003229Y007997D01*
X003069Y008193D02*
X004940Y008193D01*
X004989Y008388D02*
X002874Y008388D01*
X002679Y008583D02*
X005038Y008583D01*
X004906Y007606D02*
X002982Y007606D01*
X002794Y007411D02*
X004906Y007411D01*
X004022Y006184D02*
X003910Y006184D01*
X002544Y006239D02*
X000575Y006239D01*
X000575Y006434D02*
X002544Y006434D01*
X002544Y006629D02*
X002005Y006629D01*
X002027Y006652D02*
X001919Y006543D01*
X001873Y006517D01*
X001823Y006503D01*
X001771Y006503D01*
X001720Y006517D01*
X001675Y006543D01*
X001413Y006805D01*
X001643Y007035D01*
X001413Y006805D01*
X001151Y007067D01*
X001125Y007112D01*
X001111Y007163D01*
X001111Y007215D01*
X001125Y007265D01*
X001151Y007311D01*
X001260Y007419D01*
X001643Y007036D01*
X001643Y007036D01*
X001260Y007420D01*
X001369Y007528D01*
X001414Y007555D01*
X001464Y007568D01*
X001465Y007568D01*
X001465Y007568D01*
X001478Y007619D01*
X001504Y007664D01*
X001613Y007773D01*
X001997Y007389D01*
X001997Y007389D01*
X001874Y007266D01*
X001644Y007036D01*
X001644Y007036D01*
X001874Y007266D01*
X001874Y007266D01*
X001874Y007266D01*
X001997Y007389D01*
X001997Y007390D01*
X001613Y007773D01*
X001629Y007789D01*
X000575Y008843D01*
X000575Y004512D01*
X000969Y004512D01*
X002544Y006087D01*
X002544Y006874D01*
X002397Y007021D01*
X002381Y007005D01*
X001997Y007389D01*
X001998Y007389D01*
X002381Y007005D01*
X002272Y006896D01*
X002227Y006870D01*
X002176Y006857D01*
X002176Y006857D01*
X002176Y006856D01*
X002163Y006806D01*
X002136Y006761D01*
X002028Y006652D01*
X001644Y007035D01*
X001644Y007035D01*
X002027Y006652D01*
X002168Y006825D02*
X002544Y006825D01*
X002398Y007020D02*
X002396Y007020D01*
X002366Y007020D02*
X002366Y007020D01*
X002171Y007216D02*
X002170Y007216D01*
X001975Y007411D02*
X001976Y007411D01*
X001823Y007216D02*
X001824Y007216D01*
X001643Y007035D02*
X001643Y007035D01*
X001629Y007020D02*
X001628Y007020D01*
X001659Y007020D02*
X001659Y007020D01*
X001854Y006825D02*
X001855Y006825D01*
X001588Y006629D02*
X000575Y006629D01*
X000575Y006825D02*
X001393Y006825D01*
X001433Y006825D02*
X001433Y006825D01*
X001463Y007216D02*
X001464Y007216D01*
X001268Y007411D02*
X001268Y007411D01*
X001251Y007411D02*
X000575Y007411D01*
X000575Y007216D02*
X001111Y007216D01*
X001197Y007020D02*
X000575Y007020D01*
X000575Y007606D02*
X001475Y007606D01*
X001616Y007802D02*
X000575Y007802D01*
X000575Y007997D02*
X001421Y007997D01*
X001225Y008193D02*
X000575Y008193D01*
X000575Y008388D02*
X001030Y008388D01*
X000835Y008583D02*
X000575Y008583D01*
X000575Y008779D02*
X000639Y008779D01*
X001780Y007606D02*
X001780Y007606D01*
X002410Y007802D02*
X002410Y007802D01*
X002500Y006043D02*
X000575Y006043D01*
X000575Y005848D02*
X002305Y005848D01*
X002109Y005652D02*
X000575Y005652D01*
X000575Y005457D02*
X001914Y005457D01*
X001718Y005262D02*
X000575Y005262D01*
X000575Y005066D02*
X001523Y005066D01*
X001328Y004871D02*
X000575Y004871D01*
X000575Y004675D02*
X001132Y004675D01*
X010418Y004675D02*
X012780Y004675D01*
X012780Y004480D02*
X010418Y004480D01*
X010418Y004285D02*
X012780Y004285D01*
X012780Y004089D02*
X010418Y004089D01*
X010418Y003894D02*
X012780Y003894D01*
X012780Y003699D02*
X010418Y003699D01*
X010418Y003503D02*
X012780Y003503D01*
X012780Y003308D02*
X010418Y003308D01*
X010418Y003112D02*
X011898Y003112D01*
X011983Y003197D02*
X011721Y002935D01*
X011951Y002705D01*
X011951Y002704D01*
X011951Y002704D01*
X011568Y002321D01*
X011459Y002429D01*
X011433Y002475D01*
X011419Y002525D01*
X011419Y002577D01*
X011433Y002628D01*
X011459Y002673D01*
X011721Y002935D01*
X011951Y002704D01*
X011568Y002320D01*
X011677Y002211D01*
X011722Y002185D01*
X011772Y002172D01*
X011773Y002172D01*
X011773Y002171D01*
X011778Y002150D01*
X010418Y002150D01*
X010418Y005300D01*
X011992Y004906D01*
X012780Y004906D01*
X012780Y002937D01*
X012633Y002791D01*
X012580Y002844D01*
X012535Y002870D01*
X012484Y002883D01*
X012484Y002884D01*
X012471Y002934D01*
X012444Y002979D01*
X012336Y003088D01*
X011952Y002704D01*
X012182Y002474D01*
X012249Y002407D01*
X012249Y002406D01*
X012074Y002581D01*
X011952Y002704D01*
X011952Y002704D01*
X011952Y002705D01*
X012335Y003088D01*
X012226Y003197D01*
X012181Y003223D01*
X012131Y003237D01*
X012079Y003237D01*
X012028Y003223D01*
X011983Y003197D01*
X012164Y002917D02*
X012164Y002917D01*
X012311Y003112D02*
X012780Y003112D01*
X012759Y002917D02*
X012475Y002917D01*
X012484Y002883D02*
X012484Y002883D01*
X012130Y002526D02*
X012129Y002526D01*
X012074Y002581D02*
X012074Y002581D01*
X011969Y002722D02*
X011969Y002722D01*
X011935Y002722D02*
X011934Y002722D01*
X011773Y002526D02*
X011774Y002526D01*
X011578Y002331D02*
X011578Y002331D01*
X011557Y002331D02*
X010418Y002331D01*
X010418Y002526D02*
X011419Y002526D01*
X011507Y002722D02*
X010418Y002722D01*
X010418Y002917D02*
X011703Y002917D01*
X011739Y002917D02*
X011739Y002917D01*
X012659Y001998D02*
X013042Y002381D01*
X013027Y002397D01*
X013174Y002544D01*
X013961Y002544D01*
X015536Y000969D01*
X015536Y000575D01*
X011205Y000575D01*
X012259Y001629D01*
X012275Y001613D01*
X012384Y001504D01*
X012429Y001478D01*
X012479Y001465D01*
X012480Y001465D01*
X012480Y001464D01*
X012493Y001414D01*
X012519Y001369D01*
X012628Y001260D01*
X013012Y001643D01*
X012628Y001260D01*
X012737Y001151D01*
X012783Y001125D01*
X012833Y001111D01*
X012885Y001111D01*
X012936Y001125D01*
X012981Y001151D01*
X013243Y001413D01*
X013505Y001675D01*
X013531Y001720D01*
X013545Y001771D01*
X013545Y001823D01*
X013531Y001873D01*
X013505Y001919D01*
X013396Y002027D01*
X013013Y001644D01*
X013012Y001644D01*
X013012Y001644D01*
X012782Y001874D01*
X012659Y001997D01*
X012659Y001997D01*
X012659Y001998D01*
X012659Y001997D02*
X013043Y002381D01*
X013151Y002272D01*
X013178Y002227D01*
X013191Y002176D01*
X013191Y002176D01*
X013191Y002176D01*
X013242Y002163D01*
X013287Y002136D01*
X013396Y002028D01*
X013012Y001644D01*
X012889Y001766D01*
X012659Y001997D01*
X012275Y001613D01*
X012658Y001997D01*
X012659Y001997D01*
X012716Y001940D02*
X012716Y001940D01*
X012602Y001940D02*
X012601Y001940D01*
X012406Y001745D02*
X012406Y001745D01*
X012339Y001549D02*
X012179Y001549D01*
X011984Y001354D02*
X012534Y001354D01*
X012722Y001354D02*
X012723Y001354D01*
X012730Y001158D02*
X011788Y001158D01*
X011593Y000963D02*
X015536Y000963D01*
X015536Y000768D02*
X011398Y000768D01*
X012797Y002135D02*
X012797Y002135D01*
X012992Y002331D02*
X012993Y002331D01*
X013093Y002331D02*
X014174Y002331D01*
X013978Y002526D02*
X013156Y002526D01*
X013288Y002135D02*
X014369Y002135D01*
X014565Y001940D02*
X013484Y001940D01*
X013309Y001940D02*
X013308Y001940D01*
X013113Y001745D02*
X013114Y001745D01*
X013013Y001643D02*
X013243Y001413D01*
X013012Y001643D01*
X013012Y001643D01*
X013013Y001643D01*
X013106Y001549D02*
X013107Y001549D01*
X012918Y001549D02*
X012917Y001549D01*
X012911Y001745D02*
X012911Y001745D01*
X012889Y001766D02*
X012889Y001766D01*
X013184Y001354D02*
X015151Y001354D01*
X014955Y001549D02*
X013379Y001549D01*
X013538Y001745D02*
X014760Y001745D01*
X015346Y001158D02*
X012989Y001158D01*
X013864Y003910D02*
X013864Y004022D01*
X012780Y004871D02*
X010418Y004871D01*
X010418Y005066D02*
X011351Y005066D01*
X010569Y005262D02*
X010418Y005262D01*
X014355Y010418D02*
X014748Y011992D01*
X014748Y012780D01*
X016717Y012780D01*
X016864Y012633D01*
X016811Y012580D01*
X016784Y012535D01*
X016771Y012484D01*
X016771Y012484D01*
X016771Y012484D01*
X016720Y012471D01*
X016675Y012444D01*
X016566Y012336D01*
X016950Y011952D01*
X017180Y012182D01*
X017180Y012182D01*
X017247Y012249D01*
X017248Y012249D01*
X017181Y012182D01*
X016950Y011952D01*
X016950Y011952D01*
X016949Y011952D01*
X016566Y012335D01*
X016457Y012226D01*
X016431Y012181D01*
X016417Y012131D01*
X016417Y012079D01*
X016431Y012028D01*
X016457Y011983D01*
X016719Y011721D01*
X016949Y011951D01*
X016950Y011951D01*
X016950Y011951D01*
X017334Y011568D01*
X017443Y011677D01*
X017469Y011722D01*
X017482Y011772D01*
X017482Y011773D01*
X017483Y011773D01*
X017504Y011778D01*
X017504Y010418D01*
X014355Y010418D01*
X014385Y010537D02*
X017504Y010537D01*
X017504Y010733D02*
X014433Y010733D01*
X014482Y010928D02*
X017504Y010928D01*
X017504Y011123D02*
X014531Y011123D01*
X014580Y011319D02*
X017504Y011319D01*
X017504Y011514D02*
X017280Y011514D01*
X017334Y011568D02*
X017225Y011459D01*
X017180Y011433D01*
X017129Y011419D01*
X017077Y011419D01*
X017026Y011433D01*
X016981Y011459D01*
X016719Y011721D01*
X016950Y011951D01*
X017334Y011568D01*
X017462Y011710D02*
X017504Y011710D01*
X017192Y011710D02*
X017191Y011710D01*
X016996Y011905D02*
X016997Y011905D01*
X016904Y011905D02*
X016903Y011905D01*
X016801Y012100D02*
X016801Y012100D01*
X016606Y012296D02*
X016605Y012296D01*
X016526Y012296D02*
X014748Y012296D01*
X014748Y012491D02*
X016773Y012491D01*
X016810Y012687D02*
X014748Y012687D01*
X014748Y012100D02*
X016417Y012100D01*
X016535Y011905D02*
X014726Y011905D01*
X014678Y011710D02*
X016730Y011710D01*
X016926Y011514D02*
X014629Y011514D01*
X015633Y013864D02*
X015744Y013864D01*
X017111Y013859D02*
X019079Y013859D01*
X019079Y014054D02*
X017204Y014054D01*
X017111Y013961D02*
X018685Y015536D01*
X019079Y015536D01*
X019079Y011205D01*
X018025Y012259D01*
X018041Y012275D01*
X018150Y012384D01*
X018176Y012429D01*
X018189Y012479D01*
X018189Y012480D01*
X018190Y012480D01*
X018240Y012493D01*
X018285Y012519D01*
X018394Y012628D01*
X018011Y013012D01*
X018394Y012628D01*
X018503Y012737D01*
X018529Y012783D01*
X018543Y012833D01*
X018543Y012885D01*
X018529Y012936D01*
X018503Y012981D01*
X018241Y013243D01*
X017979Y013505D01*
X017934Y013531D01*
X017884Y013545D01*
X017831Y013545D01*
X017781Y013531D01*
X017736Y013505D01*
X017627Y013396D01*
X018010Y013013D01*
X018010Y013012D01*
X018010Y013012D01*
X017780Y012782D01*
X017657Y012659D01*
X017657Y012659D01*
X017656Y012659D01*
X017273Y013042D01*
X017257Y013027D01*
X017111Y013174D01*
X017111Y013961D01*
X017111Y013664D02*
X019079Y013664D01*
X019079Y013468D02*
X018016Y013468D01*
X018211Y013273D02*
X019079Y013273D01*
X019079Y013077D02*
X018407Y013077D01*
X018241Y013243D02*
X018011Y013012D01*
X018011Y013012D01*
X018011Y013013D01*
X018241Y013243D01*
X018075Y013077D02*
X018076Y013077D01*
X018010Y013012D02*
X017626Y013396D01*
X017518Y013287D01*
X017492Y013242D01*
X017478Y013191D01*
X017478Y013191D01*
X017478Y013191D01*
X017427Y013178D01*
X017382Y013151D01*
X017273Y013043D01*
X017657Y012659D01*
X017780Y012781D01*
X018010Y013012D01*
X017945Y013077D02*
X017946Y013077D01*
X017880Y012882D02*
X017881Y012882D01*
X018140Y012882D02*
X018141Y012882D01*
X018336Y012687D02*
X018336Y012687D01*
X018453Y012687D02*
X019079Y012687D01*
X019079Y012882D02*
X018543Y012882D01*
X018233Y012491D02*
X019079Y012491D01*
X019079Y012296D02*
X018062Y012296D01*
X018041Y012275D02*
X017657Y012659D01*
X017657Y012658D01*
X018041Y012275D01*
X018020Y012296D02*
X018020Y012296D01*
X018184Y012100D02*
X019079Y012100D01*
X019079Y011905D02*
X018379Y011905D01*
X018574Y011710D02*
X019079Y011710D01*
X019079Y011514D02*
X018770Y011514D01*
X018965Y011319D02*
X019079Y011319D01*
X017825Y012491D02*
X017824Y012491D01*
X017685Y012687D02*
X017685Y012687D01*
X017629Y012687D02*
X017629Y012687D01*
X017434Y012882D02*
X017433Y012882D01*
X017308Y013077D02*
X017207Y013077D01*
X017111Y013273D02*
X017509Y013273D01*
X017750Y013273D02*
X017750Y013273D01*
X017699Y013468D02*
X017111Y013468D01*
X017399Y014250D02*
X019079Y014250D01*
X019079Y014445D02*
X017595Y014445D01*
X017790Y014641D02*
X019079Y014641D01*
X019079Y014836D02*
X017986Y014836D01*
X018181Y015031D02*
X019079Y015031D01*
X019079Y015227D02*
X018376Y015227D01*
X018572Y015422D02*
X019079Y015422D01*
X017181Y012182D02*
X017181Y012182D01*
X017099Y012100D02*
X017098Y012100D01*
D18*
X015633Y013864D02*
X015142Y014355D01*
X012300Y012355D02*
X011170Y013485D01*
X011170Y014693D01*
X011807Y014693D02*
X011807Y015874D01*
X011906Y015874D01*
X011906Y018410D01*
X010906Y018410D02*
X010906Y015874D01*
X011138Y015874D01*
X011807Y014693D02*
X011839Y014693D01*
X007693Y012693D02*
X006563Y011563D01*
X005355Y011563D01*
X005355Y012201D02*
X004174Y012201D01*
X004174Y012300D01*
X001638Y012300D01*
X001638Y011300D02*
X004174Y011300D01*
X004174Y011532D01*
X005355Y012201D02*
X005355Y012233D01*
X005693Y015536D02*
X006184Y016026D01*
X013485Y008485D02*
X012355Y007355D01*
X013485Y008485D02*
X014693Y008485D01*
X014693Y007847D02*
X015874Y007847D01*
X015874Y007748D01*
X018410Y007748D01*
X018410Y008748D02*
X015874Y008748D01*
X015874Y008516D01*
X014693Y007847D02*
X014693Y007815D01*
X014355Y004512D02*
X013864Y004022D01*
X008748Y004174D02*
X008748Y001638D01*
X007748Y001638D02*
X007748Y004174D01*
X007847Y004174D01*
X007847Y005355D01*
X007815Y005355D01*
X008485Y005355D02*
X008485Y006563D01*
X007355Y007693D01*
X004512Y005693D02*
X004022Y006184D01*
X008516Y004174D02*
X008748Y004174D01*
D19*
X004512Y005693D03*
X014355Y004512D03*
X015142Y014355D03*
X005693Y015536D03*
D20*
X004095Y017874D02*
X005300Y018685D01*
X004095Y017874D02*
X002575Y017481D01*
X007693Y012693D02*
X008449Y013449D01*
X008449Y015536D01*
X012300Y012355D02*
X013055Y011599D01*
X015142Y011599D01*
X018292Y014748D02*
X017481Y015953D01*
X017087Y017473D01*
X007355Y007693D02*
X006599Y008449D01*
X004512Y008449D01*
X001363Y005300D02*
X002174Y004095D01*
X002567Y002575D01*
X011599Y004512D02*
X011599Y006599D01*
X012355Y007355D01*
X015953Y002174D02*
X014748Y001363D01*
X015953Y002174D02*
X017473Y002567D01*
D21*
X012386Y007268D02*
X012386Y007662D01*
X012386Y012386D01*
X007662Y012386D01*
X007662Y012780D01*
X007662Y012386D02*
X007268Y007662D01*
X012386Y007662D01*
M02*
