G75*
G70*
%OFA0B0*%
%FSLAX24Y24*%
%IPPOS*%
%LPD*%
%AMOC8*
5,1,8,0,0,1.08239X$1,22.5*
%
%ADD10C,0.0160*%
%ADD11R,0.0296X0.0729*%
%ADD12C,0.3240*%
%ADD13R,0.0434X0.0473*%
%ADD14R,0.0473X0.0434*%
%ADD15C,0.0600*%
%ADD16OC8,0.0600*%
%ADD17OC8,0.0670*%
%ADD18C,0.0670*%
D10*
X000242Y000181D02*
X013242Y000181D01*
X013242Y029681D01*
X000242Y029681D01*
X000242Y000181D01*
D11*
X005990Y001079D03*
X006490Y001079D03*
X006990Y001079D03*
X007490Y001079D03*
X007490Y003284D03*
X006990Y003284D03*
X006490Y003284D03*
X005990Y003284D03*
X005990Y007579D03*
X006490Y007579D03*
X006990Y007579D03*
X007490Y007579D03*
X007490Y009784D03*
X006990Y009784D03*
X006490Y009784D03*
X005990Y009784D03*
X005990Y014579D03*
X006490Y014579D03*
X006990Y014579D03*
X007490Y014579D03*
X007490Y016784D03*
X006990Y016784D03*
X006490Y016784D03*
X005990Y016784D03*
X005990Y021079D03*
X006490Y021079D03*
X006990Y021079D03*
X007490Y021079D03*
X007490Y023284D03*
X006990Y023284D03*
X006490Y023284D03*
X005990Y023284D03*
D12*
X002242Y025181D03*
X002242Y017681D03*
X002242Y010181D03*
X002242Y002681D03*
X011242Y002681D03*
X011242Y010181D03*
X011242Y017681D03*
X011242Y025181D03*
D13*
X008242Y022016D03*
X008242Y021347D03*
X008242Y015516D03*
X008242Y014847D03*
X008242Y008516D03*
X008242Y007847D03*
X008242Y002016D03*
X008242Y001347D03*
X005242Y001516D03*
X005242Y000847D03*
X005242Y007547D03*
X005242Y008216D03*
X005242Y014847D03*
X005242Y015516D03*
X005242Y021347D03*
X005242Y022016D03*
D14*
X009742Y015016D03*
X009742Y014347D03*
X010742Y014347D03*
X010742Y015016D03*
X010242Y021347D03*
X010242Y022016D03*
X011242Y022016D03*
X011242Y021347D03*
X010742Y007766D03*
X010742Y007097D03*
X010742Y006016D03*
X010742Y005347D03*
X011742Y005347D03*
X011742Y006016D03*
X011742Y007097D03*
X011742Y007766D03*
D15*
X008742Y028681D03*
D16*
X008742Y027681D03*
X007742Y027681D03*
X007742Y028681D03*
X006742Y028681D03*
X006742Y027681D03*
X005742Y027681D03*
X005742Y028681D03*
X004742Y028681D03*
X004742Y027681D03*
D17*
X001992Y028681D03*
D18*
X001992Y027681D03*
M02*
