%
M48
M72
T01C0.0236
T02C0.0400
T03C0.2010
%
T01
X4331Y5512
X5118Y15354
X14961Y14173
X14173Y4331
T02
X5567Y1457
X6567Y1457
X7567Y1457
X8567Y1457
X1063Y14118
X1063Y13118
X1063Y12118
X1063Y11118
X13724Y18228
X12724Y18228
X11724Y18228
X10724Y18228
X18228Y5567
X18228Y6567
X18228Y7567
X18228Y8567
T03
X7173Y7512
X2386Y2394
X7118Y12512
X2000Y17299
X12118Y12173
X16906Y17291
X12173Y7173
X17291Y2386
M30
