%
M48
M72
T01C0.0197
T02C0.0320
T03C0.0360
T04C0.1770
%
T01
X7000Y1500
X7000Y6700
X5200Y20100
X5200Y13600
X8800Y500
X4000Y750
X5800Y6400
X4500Y6400
X7300Y8100
X6200Y8500
X4500Y8700
X7200Y15100
X5750Y15000
X4500Y14500
X7300Y21600
X5900Y21600
X4500Y21000
X8400Y6800
X6800Y8500
X7500Y26500
X9150Y7000
X6750Y15500
X8000Y13000
X6800Y22100
X9500Y22500
X9500Y28000
T02
X1750Y28500
X1750Y27500
T03
X8500Y28500
X8500Y27500
X7500Y28500
X7500Y27500
X6500Y28500
X6500Y27500
X5500Y28500
X5500Y27500
X4500Y28500
X4500Y27500
T04
X11000Y2500
X2000Y2500
X11000Y10000
X2000Y10000
X11000Y17500
X2000Y17500
X11000Y25000
X2000Y25000
M30
