G75*
G70*
%OFA0B0*%
%FSLAX24Y24*%
%IPPOS*%
%LPD*%
%AMOC8*
5,1,8,0,0,1.08239X$1,22.5*
%
%ADD10C,0.0000*%
%ADD11R,0.0729X0.0296*%
%ADD12C,0.3640*%
%ADD13C,0.0640*%
%ADD14R,0.0473X0.0434*%
%ADD15R,0.0434X0.0473*%
D10*
X000181Y000181D02*
X000181Y019866D01*
X019866Y019866D01*
X019866Y000181D01*
X000181Y000181D01*
D11*
G36*
X003355Y005115D02*
X002841Y005629D01*
X003051Y005839D01*
X003565Y005325D01*
X003355Y005115D01*
G37*
G36*
X003708Y005468D02*
X003194Y005982D01*
X003404Y006192D01*
X003918Y005678D01*
X003708Y005468D01*
G37*
G36*
X004062Y005822D02*
X003548Y006336D01*
X003758Y006546D01*
X004272Y006032D01*
X004062Y005822D01*
G37*
G36*
X004415Y006175D02*
X003901Y006689D01*
X004111Y006899D01*
X004625Y006385D01*
X004415Y006175D01*
G37*
G36*
X002856Y007734D02*
X002342Y008248D01*
X002552Y008458D01*
X003066Y007944D01*
X002856Y007734D01*
G37*
G36*
X002503Y007381D02*
X001989Y007895D01*
X002199Y008105D01*
X002713Y007591D01*
X002503Y007381D01*
G37*
G36*
X002149Y007027D02*
X001635Y007541D01*
X001845Y007751D01*
X002359Y007237D01*
X002149Y007027D01*
G37*
G36*
X001796Y006674D02*
X001282Y007188D01*
X001492Y007398D01*
X002006Y006884D01*
X001796Y006674D01*
G37*
G36*
X005782Y015633D02*
X006296Y016147D01*
X006506Y015937D01*
X005992Y015423D01*
X005782Y015633D01*
G37*
G36*
X005428Y015986D02*
X005942Y016500D01*
X006152Y016290D01*
X005638Y015776D01*
X005428Y015986D01*
G37*
G36*
X005074Y016340D02*
X005588Y016854D01*
X005798Y016644D01*
X005284Y016130D01*
X005074Y016340D01*
G37*
G36*
X004721Y016693D02*
X005235Y017207D01*
X005445Y016997D01*
X004931Y016483D01*
X004721Y016693D01*
G37*
G36*
X006280Y018252D02*
X006794Y018766D01*
X007004Y018556D01*
X006490Y018042D01*
X006280Y018252D01*
G37*
G36*
X006633Y017899D02*
X007147Y018413D01*
X007357Y018203D01*
X006843Y017689D01*
X006633Y017899D01*
G37*
G36*
X006987Y017545D02*
X007501Y018059D01*
X007711Y017849D01*
X007197Y017335D01*
X006987Y017545D01*
G37*
G36*
X007341Y017192D02*
X007855Y017706D01*
X008065Y017496D01*
X007551Y016982D01*
X007341Y017192D01*
G37*
G36*
X015239Y013873D02*
X015753Y013359D01*
X015543Y013149D01*
X015029Y013663D01*
X015239Y013873D01*
G37*
G36*
X015592Y014226D02*
X016106Y013712D01*
X015896Y013502D01*
X015382Y014016D01*
X015592Y014226D01*
G37*
G36*
X015946Y014580D02*
X016460Y014066D01*
X016250Y013856D01*
X015736Y014370D01*
X015946Y014580D01*
G37*
G36*
X016300Y014933D02*
X016814Y014419D01*
X016604Y014209D01*
X016090Y014723D01*
X016300Y014933D01*
G37*
G36*
X017859Y013374D02*
X018373Y012860D01*
X018163Y012650D01*
X017649Y013164D01*
X017859Y013374D01*
G37*
G36*
X017505Y013021D02*
X018019Y012507D01*
X017809Y012297D01*
X017295Y012811D01*
X017505Y013021D01*
G37*
G36*
X017151Y012667D02*
X017665Y012153D01*
X017455Y011943D01*
X016941Y012457D01*
X017151Y012667D01*
G37*
G36*
X016798Y012314D02*
X017312Y011800D01*
X017102Y011590D01*
X016588Y012104D01*
X016798Y012314D01*
G37*
G36*
X013873Y004415D02*
X013359Y003901D01*
X013149Y004111D01*
X013663Y004625D01*
X013873Y004415D01*
G37*
G36*
X014226Y004062D02*
X013712Y003548D01*
X013502Y003758D01*
X014016Y004272D01*
X014226Y004062D01*
G37*
G36*
X014580Y003708D02*
X014066Y003194D01*
X013856Y003404D01*
X014370Y003918D01*
X014580Y003708D01*
G37*
G36*
X014933Y003355D02*
X014419Y002841D01*
X014209Y003051D01*
X014723Y003565D01*
X014933Y003355D01*
G37*
G36*
X013374Y001796D02*
X012860Y001282D01*
X012650Y001492D01*
X013164Y002006D01*
X013374Y001796D01*
G37*
G36*
X013021Y002149D02*
X012507Y001635D01*
X012297Y001845D01*
X012811Y002359D01*
X013021Y002149D01*
G37*
G36*
X012667Y002503D02*
X012153Y001989D01*
X011943Y002199D01*
X012457Y002713D01*
X012667Y002503D01*
G37*
G36*
X012314Y002856D02*
X011800Y002342D01*
X011590Y002552D01*
X012104Y003066D01*
X012314Y002856D01*
G37*
D12*
X012355Y007355D03*
X012300Y012355D03*
X007300Y012693D03*
X007355Y007693D03*
X002567Y002575D03*
X017473Y002567D03*
X017087Y017473D03*
X002181Y017481D03*
D13*
X001544Y014300D02*
X000944Y014300D01*
X000944Y013300D02*
X001544Y013300D01*
X001544Y012300D02*
X000944Y012300D01*
X000944Y011300D02*
X001544Y011300D01*
X005748Y001938D02*
X005748Y001338D01*
X006748Y001338D02*
X006748Y001938D01*
X007748Y001938D02*
X007748Y001338D01*
X008748Y001338D02*
X008748Y001938D01*
X018110Y005748D02*
X018710Y005748D01*
X018710Y006748D02*
X018110Y006748D01*
X018110Y007748D02*
X018710Y007748D01*
X018710Y008748D02*
X018110Y008748D01*
X013906Y018110D02*
X013906Y018710D01*
X012906Y018710D02*
X012906Y018110D01*
X011906Y018110D02*
X011906Y018710D01*
X010906Y018710D02*
X010906Y018110D01*
D14*
G36*
X014325Y015077D02*
X013992Y014744D01*
X013685Y015051D01*
X014018Y015384D01*
X014325Y015077D01*
G37*
G36*
X014799Y015550D02*
X014466Y015217D01*
X014159Y015524D01*
X014492Y015857D01*
X014799Y015550D01*
G37*
G36*
X015529Y015099D02*
X015196Y014766D01*
X014889Y015073D01*
X015222Y015406D01*
X015529Y015099D01*
G37*
G36*
X016002Y015573D02*
X015669Y015240D01*
X015362Y015547D01*
X015695Y015880D01*
X016002Y015573D01*
G37*
X015874Y008516D03*
X015874Y007847D03*
X014693Y007815D03*
X014693Y008485D03*
G36*
X015077Y005329D02*
X014744Y005662D01*
X015051Y005969D01*
X015384Y005636D01*
X015077Y005329D01*
G37*
G36*
X015550Y004855D02*
X015217Y005188D01*
X015524Y005495D01*
X015857Y005162D01*
X015550Y004855D01*
G37*
G36*
X015099Y004125D02*
X014766Y004458D01*
X015073Y004765D01*
X015406Y004432D01*
X015099Y004125D01*
G37*
G36*
X015573Y003652D02*
X015240Y003985D01*
X015547Y004292D01*
X015880Y003959D01*
X015573Y003652D01*
G37*
G36*
X005329Y004971D02*
X005662Y005304D01*
X005969Y004997D01*
X005636Y004664D01*
X005329Y004971D01*
G37*
G36*
X004855Y004497D02*
X005188Y004830D01*
X005495Y004523D01*
X005162Y004190D01*
X004855Y004497D01*
G37*
G36*
X004125Y004948D02*
X004458Y005281D01*
X004765Y004974D01*
X004432Y004641D01*
X004125Y004948D01*
G37*
G36*
X003652Y004475D02*
X003985Y004808D01*
X004292Y004501D01*
X003959Y004168D01*
X003652Y004475D01*
G37*
X003780Y011532D03*
X003780Y012201D03*
X004961Y012233D03*
X004961Y011563D03*
G36*
X004577Y014719D02*
X004910Y014386D01*
X004603Y014079D01*
X004270Y014412D01*
X004577Y014719D01*
G37*
G36*
X004104Y015192D02*
X004437Y014859D01*
X004130Y014552D01*
X003797Y014885D01*
X004104Y015192D01*
G37*
G36*
X004555Y015923D02*
X004888Y015590D01*
X004581Y015283D01*
X004248Y015616D01*
X004555Y015923D01*
G37*
G36*
X004081Y016396D02*
X004414Y016063D01*
X004107Y015756D01*
X003774Y016089D01*
X004081Y016396D01*
G37*
D15*
X011138Y015874D03*
X011807Y015874D03*
X011839Y014693D03*
X011170Y014693D03*
X008485Y005355D03*
X007815Y005355D03*
X007847Y004174D03*
X008516Y004174D03*
M02*
