G75*
G70*
%OFA0B0*%
%FSLAX24Y24*%
%IPPOS*%
%LPD*%
%AMOC8*
5,1,8,0,0,1.08239X$1,22.5*
%
%ADD10C,0.0160*%
%ADD11R,0.0256X0.0689*%
%ADD12C,0.3200*%
%ADD13R,0.0394X0.0433*%
%ADD14R,0.0433X0.0394*%
%ADD15C,0.0560*%
%ADD16OC8,0.0560*%
%ADD17OC8,0.0630*%
%ADD18C,0.0630*%
%ADD19C,0.0317*%
%ADD20C,0.0100*%
%ADD21C,0.0400*%
%ADD22R,0.0317X0.0317*%
%ADD23C,0.3000*%
D10*
X000242Y000181D02*
X013242Y000181D01*
X013242Y029681D01*
X000242Y029681D01*
X000242Y000181D01*
X004242Y000931D02*
X005242Y001681D01*
X005990Y000929D01*
X005990Y001079D01*
X006042Y001131D01*
X006042Y001881D01*
X006177Y002016D01*
X008242Y002016D01*
X008242Y001347D02*
X008242Y000781D01*
X007742Y000781D01*
X007490Y000933D01*
X007490Y001079D01*
X007490Y001433D01*
X007242Y001681D01*
X007592Y003181D02*
X007490Y003284D01*
X007592Y003181D02*
X010242Y003181D01*
X010042Y003381D02*
X010342Y003681D01*
X012242Y003681D01*
X012742Y004181D01*
X012742Y006181D01*
X011907Y006181D01*
X011884Y006179D01*
X011861Y006174D01*
X011838Y006166D01*
X011818Y006155D01*
X011799Y006141D01*
X011782Y006124D01*
X011768Y006105D01*
X011757Y006085D01*
X011749Y006062D01*
X011744Y006039D01*
X011742Y006016D01*
X011742Y007097D02*
X010742Y007097D01*
X010142Y006281D02*
X009842Y006581D01*
X006042Y006581D01*
X005990Y007579D01*
X005510Y007579D01*
X005242Y007547D01*
X004742Y006581D02*
X006042Y006581D01*
X006490Y007579D02*
X006442Y007627D01*
X006442Y008681D02*
X006242Y008881D01*
X004742Y008881D01*
X005990Y009784D02*
X005092Y010681D01*
X004242Y010681D01*
X005442Y013781D02*
X007092Y013781D01*
X007492Y014181D01*
X007492Y014577D01*
X007490Y014579D02*
X007974Y014579D01*
X008242Y014847D01*
X008242Y015516D02*
X007677Y015516D01*
X007442Y015281D01*
X008242Y015516D02*
X009242Y015516D01*
X009742Y015016D01*
X008242Y016681D02*
X009242Y017681D01*
X008242Y016681D02*
X007592Y016681D01*
X007490Y016784D01*
X005990Y016784D02*
X005888Y016681D01*
X004242Y016681D01*
X003742Y017181D01*
X003742Y017681D01*
X004742Y014681D02*
X005242Y014781D01*
X005242Y014847D02*
X005510Y014579D01*
X005990Y014579D01*
X005992Y014581D02*
X005992Y015181D01*
X005442Y020281D02*
X007242Y020281D01*
X007442Y020481D01*
X007442Y021031D01*
X007490Y021079D02*
X007974Y021079D01*
X008242Y021347D01*
X008242Y022016D02*
X007777Y022016D01*
X007542Y021781D01*
X007490Y023284D02*
X008888Y024681D01*
X009242Y024681D01*
X010242Y022016D02*
X011242Y022016D01*
X011242Y021347D02*
X012242Y021347D01*
X012242Y024181D01*
X011242Y025181D01*
X006142Y021781D02*
X005990Y021629D01*
X005990Y021079D01*
X005510Y021079D01*
X005242Y021347D01*
X005077Y021181D02*
X004742Y021181D01*
X004742Y023181D02*
X003742Y024181D01*
X004742Y023181D02*
X005888Y023181D01*
X005990Y023284D01*
X009830Y010534D02*
X009830Y010270D01*
X009742Y010181D01*
X007888Y010181D01*
X007490Y009784D01*
X008077Y008516D02*
X007542Y008281D01*
X007490Y007579D02*
X007490Y007433D01*
X007742Y007181D01*
X007442Y006881D01*
X007242Y006881D01*
X007742Y007181D02*
X008242Y007181D01*
X008242Y007847D01*
X010142Y006281D02*
X010142Y005531D01*
X010327Y005347D01*
X010742Y005347D01*
X011742Y007766D02*
X011742Y009681D01*
X011242Y009681D01*
X011242Y010181D01*
X006442Y001031D02*
X006442Y000681D01*
X006242Y000481D01*
X005607Y000481D01*
X005242Y000847D01*
X005242Y001516D02*
X004242Y000931D01*
D11*
X005990Y001079D03*
X006490Y001079D03*
X006990Y001079D03*
X007490Y001079D03*
X007490Y003284D03*
X006990Y003284D03*
X006490Y003284D03*
X005990Y003284D03*
X005990Y007579D03*
X006490Y007579D03*
X006990Y007579D03*
X007490Y007579D03*
X007490Y009784D03*
X006990Y009784D03*
X006490Y009784D03*
X005990Y009784D03*
X005990Y014579D03*
X006490Y014579D03*
X006990Y014579D03*
X007490Y014579D03*
X007490Y016784D03*
X006990Y016784D03*
X006490Y016784D03*
X005990Y016784D03*
X005990Y021079D03*
X006490Y021079D03*
X006990Y021079D03*
X007490Y021079D03*
X007490Y023284D03*
X006990Y023284D03*
X006490Y023284D03*
X005990Y023284D03*
D12*
X002242Y025181D03*
X002242Y017681D03*
X002242Y010181D03*
X002242Y002681D03*
X011242Y002681D03*
X011242Y010181D03*
X011242Y017681D03*
X011242Y025181D03*
D13*
X008242Y022016D03*
X008242Y021347D03*
X008242Y015516D03*
X008242Y014847D03*
X008242Y008516D03*
X008242Y007847D03*
X008242Y002016D03*
X008242Y001347D03*
X005242Y001516D03*
X005242Y000847D03*
X005242Y007547D03*
X005242Y008216D03*
X005242Y014847D03*
X005242Y015516D03*
X005242Y021347D03*
X005242Y022016D03*
D14*
X009742Y015016D03*
X009742Y014347D03*
X010742Y014347D03*
X010742Y015016D03*
X010242Y021347D03*
X010242Y022016D03*
X011242Y022016D03*
X011242Y021347D03*
X010742Y007766D03*
X010742Y007097D03*
X010742Y006016D03*
X010742Y005347D03*
X011742Y005347D03*
X011742Y006016D03*
X011742Y007097D03*
X011742Y007766D03*
D15*
X008742Y028681D03*
D16*
X008742Y027681D03*
X007742Y027681D03*
X007742Y028681D03*
X006742Y028681D03*
X006742Y027681D03*
X005742Y027681D03*
X005742Y028681D03*
X004742Y028681D03*
X004742Y027681D03*
D17*
X001992Y028681D03*
D18*
X001992Y027681D03*
D19*
X004742Y021181D03*
X005442Y020281D03*
X006142Y021781D03*
X007042Y022281D03*
X007542Y021781D03*
X007742Y026681D03*
X009742Y028181D03*
X009742Y022681D03*
X006992Y015681D03*
X007442Y015281D03*
X008242Y013181D03*
X007042Y008681D03*
X007542Y008281D03*
X007242Y006881D03*
X006442Y008681D03*
X006042Y006581D03*
X004742Y006581D03*
X004742Y008881D03*
X005442Y013781D03*
X004742Y014681D03*
X005992Y015181D03*
X008642Y006981D03*
X007242Y001681D03*
X009042Y000681D03*
D20*
X008842Y000481D01*
X007142Y000481D01*
X006990Y000633D01*
X006990Y001079D01*
X006490Y001079D02*
X006442Y001031D01*
X006542Y002681D02*
X004345Y002681D01*
X004273Y003226D01*
X004063Y003733D01*
X003729Y004168D01*
X003729Y004168D01*
X003729Y004168D01*
X003293Y004502D01*
X002786Y004712D01*
X002242Y004784D01*
X002242Y005181D01*
X003242Y006181D01*
X006242Y006181D01*
X006542Y005881D01*
X006542Y003778D01*
X006504Y003778D01*
X006504Y003298D01*
X006476Y003298D01*
X006476Y003778D01*
X006342Y003778D01*
X006304Y003768D01*
X006270Y003748D01*
X006242Y003720D01*
X006240Y003717D01*
X006238Y003720D01*
X006210Y003748D01*
X006176Y003768D01*
X006138Y003778D01*
X006004Y003778D01*
X006004Y003298D01*
X005976Y003298D01*
X005976Y003778D01*
X005842Y003778D01*
X005804Y003768D01*
X005770Y003748D01*
X005742Y003720D01*
X005722Y003686D01*
X005712Y003648D01*
X005712Y003298D01*
X005976Y003298D01*
X005976Y003270D01*
X005712Y003270D01*
X005712Y002920D01*
X005722Y002881D01*
X005742Y002847D01*
X005770Y002819D01*
X005804Y002800D01*
X005842Y002789D01*
X005976Y002789D01*
X005976Y003270D01*
X006004Y003270D01*
X006004Y003298D01*
X006268Y003298D01*
X006476Y003298D01*
X006476Y003270D01*
X006268Y003270D01*
X006004Y003270D01*
X006004Y002789D01*
X006138Y002789D01*
X006176Y002800D01*
X006210Y002819D01*
X006238Y002847D01*
X006240Y002851D01*
X006242Y002847D01*
X006270Y002819D01*
X006304Y002800D01*
X006342Y002789D01*
X006476Y002789D01*
X006476Y003270D01*
X006504Y003270D01*
X006504Y002789D01*
X006542Y002789D01*
X006542Y002681D01*
X006542Y002744D02*
X004336Y002744D01*
X004323Y002842D02*
X005747Y002842D01*
X005712Y002941D02*
X004311Y002941D01*
X004298Y003039D02*
X005712Y003039D01*
X005712Y003138D02*
X004285Y003138D01*
X004273Y003226D02*
X004273Y003226D01*
X004269Y003236D02*
X005712Y003236D01*
X005712Y003335D02*
X004228Y003335D01*
X004187Y003433D02*
X005712Y003433D01*
X005712Y003532D02*
X004146Y003532D01*
X004105Y003630D02*
X005712Y003630D01*
X005751Y003729D02*
X004064Y003729D01*
X004063Y003733D02*
X004063Y003733D01*
X003990Y003828D02*
X006542Y003828D01*
X006542Y003926D02*
X003915Y003926D01*
X003839Y004025D02*
X006542Y004025D01*
X006542Y004123D02*
X003763Y004123D01*
X003659Y004222D02*
X006542Y004222D01*
X006542Y004320D02*
X003531Y004320D01*
X003402Y004419D02*
X006542Y004419D01*
X006542Y004517D02*
X003257Y004517D01*
X003293Y004502D02*
X003293Y004502D01*
X003019Y004616D02*
X006542Y004616D01*
X006542Y004714D02*
X002771Y004714D01*
X002786Y004712D02*
X002786Y004712D01*
X002465Y005404D02*
X006542Y005404D01*
X006542Y005306D02*
X002366Y005306D01*
X002268Y005207D02*
X006542Y005207D01*
X006542Y005109D02*
X002242Y005109D01*
X002242Y005010D02*
X006542Y005010D01*
X006542Y004911D02*
X002242Y004911D01*
X002242Y004813D02*
X006542Y004813D01*
X006542Y005503D02*
X002563Y005503D01*
X002662Y005601D02*
X006542Y005601D01*
X006542Y005700D02*
X002760Y005700D01*
X002859Y005798D02*
X006542Y005798D01*
X006526Y005897D02*
X002957Y005897D01*
X003056Y005995D02*
X006428Y005995D01*
X006329Y006094D02*
X003154Y006094D01*
X004042Y009181D02*
X004234Y009623D01*
X004311Y010181D01*
X004234Y010740D01*
X004010Y011256D01*
X003654Y011694D01*
X003194Y012019D01*
X002663Y012207D01*
X002663Y012207D01*
X002293Y012233D01*
X002742Y012681D01*
X006242Y012681D01*
X006542Y012281D01*
X006542Y010278D01*
X006504Y010278D01*
X006504Y009798D01*
X006476Y009798D01*
X006476Y010278D01*
X006342Y010278D01*
X006304Y010268D01*
X006270Y010248D01*
X006242Y010220D01*
X006240Y010217D01*
X006238Y010220D01*
X006210Y010248D01*
X006176Y010268D01*
X006138Y010278D01*
X006004Y010278D01*
X006004Y009798D01*
X005976Y009798D01*
X005976Y010278D01*
X005842Y010278D01*
X005804Y010268D01*
X005770Y010248D01*
X005742Y010220D01*
X005722Y010186D01*
X005712Y010148D01*
X005712Y009798D01*
X005976Y009798D01*
X005976Y009770D01*
X005712Y009770D01*
X005712Y009420D01*
X005722Y009381D01*
X005742Y009347D01*
X005770Y009319D01*
X005804Y009300D01*
X005842Y009289D01*
X005976Y009289D01*
X005976Y009770D01*
X006004Y009770D01*
X006004Y009798D01*
X006212Y009798D01*
X006476Y009798D01*
X006476Y009770D01*
X006212Y009770D01*
X006004Y009770D01*
X006004Y009289D01*
X006138Y009289D01*
X006176Y009300D01*
X006210Y009319D01*
X006238Y009347D01*
X006240Y009351D01*
X006242Y009347D01*
X006270Y009319D01*
X006304Y009300D01*
X006342Y009289D01*
X006476Y009289D01*
X006476Y009770D01*
X006504Y009770D01*
X006504Y009289D01*
X006542Y009289D01*
X006542Y009181D01*
X004042Y009181D01*
X004071Y009247D02*
X006542Y009247D01*
X006504Y009346D02*
X006476Y009346D01*
X006476Y009444D02*
X006504Y009444D01*
X006504Y009543D02*
X006476Y009543D01*
X006476Y009642D02*
X006504Y009642D01*
X006504Y009740D02*
X006476Y009740D01*
X006476Y009839D02*
X006504Y009839D01*
X006504Y009937D02*
X006476Y009937D01*
X006476Y010036D02*
X006504Y010036D01*
X006504Y010134D02*
X006476Y010134D01*
X006476Y010233D02*
X006504Y010233D01*
X006542Y010331D02*
X004290Y010331D01*
X004304Y010233D02*
X005754Y010233D01*
X005712Y010134D02*
X004305Y010134D01*
X004291Y010036D02*
X005712Y010036D01*
X005712Y009937D02*
X004277Y009937D01*
X004264Y009839D02*
X005712Y009839D01*
X005712Y009740D02*
X004250Y009740D01*
X004237Y009642D02*
X005712Y009642D01*
X005712Y009543D02*
X004199Y009543D01*
X004234Y009623D02*
X004234Y009623D01*
X004157Y009444D02*
X005712Y009444D01*
X005743Y009346D02*
X004114Y009346D01*
X004277Y010430D02*
X006542Y010430D01*
X006542Y010528D02*
X004263Y010528D01*
X004250Y010627D02*
X006542Y010627D01*
X006542Y010726D02*
X004236Y010726D01*
X004234Y010740D02*
X004234Y010740D01*
X004198Y010824D02*
X006542Y010824D01*
X006542Y010923D02*
X004155Y010923D01*
X004112Y011021D02*
X006542Y011021D01*
X006542Y011120D02*
X004069Y011120D01*
X004026Y011218D02*
X006542Y011218D01*
X006542Y011317D02*
X003961Y011317D01*
X004010Y011256D02*
X004010Y011256D01*
X003881Y011415D02*
X006542Y011415D01*
X006542Y011514D02*
X003800Y011514D01*
X003720Y011612D02*
X006542Y011612D01*
X006542Y011711D02*
X003630Y011711D01*
X003654Y011694D02*
X003654Y011694D01*
X003490Y011810D02*
X006542Y011810D01*
X006542Y011908D02*
X003350Y011908D01*
X003211Y012007D02*
X006542Y012007D01*
X006542Y012105D02*
X002950Y012105D01*
X003194Y012019D02*
X003194Y012019D01*
X002673Y012204D02*
X006542Y012204D01*
X006526Y012302D02*
X002363Y012302D01*
X002461Y012401D02*
X006452Y012401D01*
X006378Y012499D02*
X002560Y012499D01*
X002658Y012598D02*
X006305Y012598D01*
X006942Y012381D02*
X007242Y012681D01*
X010242Y012681D01*
X010709Y012214D01*
X010698Y012212D01*
X010698Y012212D01*
X010191Y012002D01*
X010191Y012002D01*
X009755Y011668D01*
X009421Y011233D01*
X009421Y011233D01*
X009211Y010726D01*
X009211Y010726D01*
X009139Y010181D01*
X009211Y009637D01*
X009400Y009181D01*
X006942Y009181D01*
X006942Y009289D01*
X006976Y009289D01*
X006976Y009770D01*
X007004Y009770D01*
X007004Y009798D01*
X006976Y009798D01*
X006976Y010278D01*
X006942Y010278D01*
X006942Y012381D01*
X006961Y012401D02*
X010522Y012401D01*
X010424Y012499D02*
X007060Y012499D01*
X007158Y012598D02*
X010325Y012598D01*
X010439Y012105D02*
X006942Y012105D01*
X006942Y012007D02*
X010201Y012007D01*
X010068Y011908D02*
X006942Y011908D01*
X006942Y011810D02*
X009939Y011810D01*
X009811Y011711D02*
X006942Y011711D01*
X006942Y011612D02*
X009712Y011612D01*
X009755Y011668D02*
X009755Y011668D01*
X009755Y011668D01*
X009637Y011514D02*
X006942Y011514D01*
X006942Y011415D02*
X009561Y011415D01*
X009485Y011317D02*
X006942Y011317D01*
X006942Y011218D02*
X009415Y011218D01*
X009374Y011120D02*
X006942Y011120D01*
X006942Y011021D02*
X009333Y011021D01*
X009292Y010923D02*
X006942Y010923D01*
X006942Y010824D02*
X009252Y010824D01*
X009211Y010726D02*
X006942Y010726D01*
X006942Y010627D02*
X009198Y010627D01*
X009185Y010528D02*
X006942Y010528D01*
X006942Y010430D02*
X009172Y010430D01*
X009159Y010331D02*
X006942Y010331D01*
X007004Y010278D02*
X007004Y009798D01*
X007268Y009798D01*
X007476Y009798D01*
X007476Y010278D01*
X007342Y010278D01*
X007304Y010268D01*
X007270Y010248D01*
X007242Y010220D01*
X007240Y010217D01*
X007238Y010220D01*
X007210Y010248D01*
X007176Y010268D01*
X007138Y010278D01*
X007004Y010278D01*
X007004Y010233D02*
X006976Y010233D01*
X006976Y010134D02*
X007004Y010134D01*
X007004Y010036D02*
X006976Y010036D01*
X006976Y009937D02*
X007004Y009937D01*
X007004Y009839D02*
X006976Y009839D01*
X007004Y009770D02*
X007268Y009770D01*
X007476Y009770D01*
X007476Y009798D01*
X007504Y009798D01*
X007504Y010278D01*
X007638Y010278D01*
X007676Y010268D01*
X007710Y010248D01*
X007738Y010220D01*
X007758Y010186D01*
X007768Y010148D01*
X007768Y009798D01*
X007504Y009798D01*
X007504Y009770D01*
X007768Y009770D01*
X007768Y009420D01*
X007758Y009381D01*
X007738Y009347D01*
X007710Y009319D01*
X007676Y009300D01*
X007638Y009289D01*
X007504Y009289D01*
X007504Y009770D01*
X007476Y009770D01*
X007476Y009289D01*
X007342Y009289D01*
X007304Y009300D01*
X007270Y009319D01*
X007242Y009347D01*
X007240Y009351D01*
X007238Y009347D01*
X007210Y009319D01*
X007176Y009300D01*
X007138Y009289D01*
X007004Y009289D01*
X007004Y009770D01*
X007004Y009740D02*
X006976Y009740D01*
X006976Y009642D02*
X007004Y009642D01*
X007004Y009543D02*
X006976Y009543D01*
X006976Y009444D02*
X007004Y009444D01*
X007004Y009346D02*
X006976Y009346D01*
X006942Y009247D02*
X009372Y009247D01*
X009331Y009346D02*
X007737Y009346D01*
X007768Y009444D02*
X009291Y009444D01*
X009250Y009543D02*
X007768Y009543D01*
X007768Y009642D02*
X009210Y009642D01*
X009211Y009637D02*
X009211Y009637D01*
X009197Y009740D02*
X007768Y009740D01*
X007768Y009839D02*
X009184Y009839D01*
X009171Y009937D02*
X007768Y009937D01*
X007768Y010036D02*
X009158Y010036D01*
X009145Y010134D02*
X007768Y010134D01*
X007725Y010233D02*
X009146Y010233D01*
X009139Y010181D02*
X009139Y010181D01*
X009739Y010181D02*
X009746Y010131D01*
X011192Y010131D01*
X011192Y010231D01*
X009746Y010231D01*
X009739Y010181D01*
X009745Y010134D02*
X011192Y010134D01*
X010676Y012204D02*
X006942Y012204D01*
X006942Y012302D02*
X010621Y012302D01*
X010742Y014347D02*
X009742Y014347D01*
X008577Y013181D01*
X008242Y013181D01*
X007492Y014577D02*
X007490Y014579D01*
X006990Y014579D02*
X006990Y015679D01*
X006992Y015681D01*
X006942Y016181D02*
X006942Y016289D01*
X006976Y016289D01*
X006976Y016770D01*
X007004Y016770D01*
X007004Y016798D01*
X006976Y016798D01*
X006976Y017278D01*
X006942Y017278D01*
X006942Y019381D01*
X007242Y019681D01*
X010242Y019681D01*
X010326Y019597D01*
X010173Y019533D01*
X009730Y019194D01*
X009730Y019194D01*
X009730Y019193D01*
X009390Y018751D01*
X009390Y018751D01*
X009176Y018235D01*
X009103Y017681D01*
X009176Y017128D01*
X009390Y016612D01*
X009721Y016181D01*
X006942Y016181D01*
X006942Y016244D02*
X009672Y016244D01*
X009597Y016343D02*
X007733Y016343D01*
X007738Y016347D02*
X007758Y016381D01*
X007768Y016420D01*
X007768Y016770D01*
X007504Y016770D01*
X007504Y016798D01*
X007476Y016798D01*
X007476Y017278D01*
X007342Y017278D01*
X007304Y017268D01*
X007270Y017248D01*
X007242Y017220D01*
X007240Y017217D01*
X007238Y017220D01*
X007210Y017248D01*
X007176Y017268D01*
X007138Y017278D01*
X007004Y017278D01*
X007004Y016798D01*
X007212Y016798D01*
X007476Y016798D01*
X007476Y016770D01*
X007212Y016770D01*
X007004Y016770D01*
X007004Y016289D01*
X007138Y016289D01*
X007176Y016300D01*
X007210Y016319D01*
X007238Y016347D01*
X007240Y016351D01*
X007242Y016347D01*
X007270Y016319D01*
X007304Y016300D01*
X007342Y016289D01*
X007476Y016289D01*
X007476Y016770D01*
X007504Y016770D01*
X007504Y016289D01*
X007638Y016289D01*
X007676Y016300D01*
X007710Y016319D01*
X007738Y016347D01*
X007768Y016441D02*
X009521Y016441D01*
X009446Y016540D02*
X007768Y016540D01*
X007768Y016638D02*
X009379Y016638D01*
X009390Y016612D02*
X009390Y016612D01*
X009338Y016737D02*
X007768Y016737D01*
X007768Y016798D02*
X007768Y017148D01*
X007758Y017186D01*
X007738Y017220D01*
X007710Y017248D01*
X007676Y017268D01*
X007638Y017278D01*
X007504Y017278D01*
X007504Y016798D01*
X007768Y016798D01*
X007768Y016835D02*
X009298Y016835D01*
X009257Y016934D02*
X007768Y016934D01*
X007768Y017032D02*
X009216Y017032D01*
X009176Y017128D02*
X009176Y017128D01*
X009176Y017131D02*
X007768Y017131D01*
X007729Y017229D02*
X009163Y017229D01*
X009150Y017328D02*
X006942Y017328D01*
X006942Y017426D02*
X009137Y017426D01*
X009124Y017525D02*
X006942Y017525D01*
X006942Y017624D02*
X009111Y017624D01*
X009103Y017681D02*
X009103Y017681D01*
X009109Y017722D02*
X006942Y017722D01*
X006942Y017821D02*
X009122Y017821D01*
X009135Y017919D02*
X006942Y017919D01*
X006942Y018018D02*
X009148Y018018D01*
X009161Y018116D02*
X006942Y018116D01*
X006942Y018215D02*
X009174Y018215D01*
X009176Y018235D02*
X009176Y018235D01*
X009209Y018313D02*
X006942Y018313D01*
X006942Y018412D02*
X009250Y018412D01*
X009290Y018510D02*
X006942Y018510D01*
X006942Y018609D02*
X009331Y018609D01*
X009372Y018708D02*
X006942Y018708D01*
X006942Y018806D02*
X009433Y018806D01*
X009508Y018905D02*
X006942Y018905D01*
X006942Y019003D02*
X009584Y019003D01*
X009659Y019102D02*
X006942Y019102D01*
X006942Y019200D02*
X009739Y019200D01*
X009867Y019299D02*
X006942Y019299D01*
X006958Y019397D02*
X009995Y019397D01*
X010124Y019496D02*
X007056Y019496D01*
X007155Y019594D02*
X010320Y019594D01*
X010173Y019533D02*
X010173Y019533D01*
X010242Y021347D02*
X009327Y021347D01*
X008657Y022016D01*
X008242Y022016D01*
X007710Y022819D02*
X007738Y022847D01*
X007758Y022881D01*
X007768Y022920D01*
X007768Y023270D01*
X007504Y023270D01*
X007504Y023298D01*
X007476Y023298D01*
X007476Y023778D01*
X007342Y023778D01*
X007304Y023768D01*
X007270Y023748D01*
X007242Y023720D01*
X007240Y023717D01*
X007238Y023720D01*
X007210Y023748D01*
X007176Y023768D01*
X007138Y023778D01*
X007004Y023778D01*
X007004Y023298D01*
X006976Y023298D01*
X006976Y023778D01*
X006942Y023778D01*
X006942Y025881D01*
X007242Y026181D01*
X009428Y026181D01*
X009326Y026014D01*
X009326Y026014D01*
X009173Y025466D01*
X009173Y025466D01*
X009173Y024897D01*
X009326Y024349D01*
X009622Y023863D01*
X009778Y023717D01*
X008742Y022681D01*
X006942Y022681D01*
X006942Y022789D01*
X006976Y022789D01*
X006976Y023270D01*
X007004Y023270D01*
X007004Y023298D01*
X007268Y023298D01*
X007476Y023298D01*
X007476Y023270D01*
X007268Y023270D01*
X007004Y023270D01*
X007004Y022789D01*
X007138Y022789D01*
X007176Y022800D01*
X007210Y022819D01*
X007238Y022847D01*
X007240Y022851D01*
X007242Y022847D01*
X007270Y022819D01*
X007304Y022800D01*
X007342Y022789D01*
X007476Y022789D01*
X007476Y023270D01*
X007504Y023270D01*
X007504Y022789D01*
X007638Y022789D01*
X007676Y022800D01*
X007710Y022819D01*
X007737Y022846D02*
X008907Y022846D01*
X008808Y022748D02*
X006942Y022748D01*
X006976Y022846D02*
X007004Y022846D01*
X007004Y022945D02*
X006976Y022945D01*
X006976Y023043D02*
X007004Y023043D01*
X007004Y023142D02*
X006976Y023142D01*
X006976Y023241D02*
X007004Y023241D01*
X007004Y023339D02*
X006976Y023339D01*
X006976Y023438D02*
X007004Y023438D01*
X007004Y023536D02*
X006976Y023536D01*
X006976Y023635D02*
X007004Y023635D01*
X007004Y023733D02*
X006976Y023733D01*
X006942Y023832D02*
X009655Y023832D01*
X009622Y023863D02*
X009622Y023863D01*
X009581Y023930D02*
X006942Y023930D01*
X006942Y024029D02*
X009521Y024029D01*
X009461Y024127D02*
X006942Y024127D01*
X006942Y024226D02*
X009401Y024226D01*
X009341Y024325D02*
X006942Y024325D01*
X006942Y024423D02*
X009305Y024423D01*
X009326Y024349D02*
X009326Y024349D01*
X009278Y024522D02*
X006942Y024522D01*
X006942Y024620D02*
X009250Y024620D01*
X009222Y024719D02*
X006942Y024719D01*
X006942Y024817D02*
X009195Y024817D01*
X009173Y024897D02*
X009173Y024897D01*
X009173Y024916D02*
X006942Y024916D01*
X006942Y025014D02*
X009173Y025014D01*
X009173Y025113D02*
X006942Y025113D01*
X006942Y025211D02*
X009173Y025211D01*
X009173Y025310D02*
X006942Y025310D01*
X006942Y025409D02*
X009173Y025409D01*
X009184Y025507D02*
X006942Y025507D01*
X006942Y025606D02*
X009212Y025606D01*
X009239Y025704D02*
X006942Y025704D01*
X006942Y025803D02*
X009267Y025803D01*
X009295Y025901D02*
X006962Y025901D01*
X007060Y026000D02*
X009322Y026000D01*
X009378Y026098D02*
X007159Y026098D01*
X006542Y025881D02*
X006542Y023778D01*
X006504Y023778D01*
X006504Y023298D01*
X006476Y023298D01*
X006476Y023778D01*
X006342Y023778D01*
X006304Y023768D01*
X006270Y023748D01*
X006242Y023720D01*
X006240Y023717D01*
X006238Y023720D01*
X006210Y023748D01*
X006176Y023768D01*
X006138Y023778D01*
X006004Y023778D01*
X006004Y023298D01*
X005976Y023298D01*
X005976Y023778D01*
X005842Y023778D01*
X005804Y023768D01*
X005770Y023748D01*
X005742Y023720D01*
X005722Y023686D01*
X005712Y023648D01*
X005712Y023298D01*
X005976Y023298D01*
X005976Y023270D01*
X005712Y023270D01*
X005712Y022920D01*
X005722Y022881D01*
X005742Y022847D01*
X005770Y022819D01*
X005804Y022800D01*
X005842Y022789D01*
X005976Y022789D01*
X005976Y023270D01*
X006004Y023270D01*
X006004Y023298D01*
X006212Y023298D01*
X006476Y023298D01*
X006476Y023270D01*
X006212Y023270D01*
X006004Y023270D01*
X006004Y022789D01*
X006138Y022789D01*
X006176Y022800D01*
X006210Y022819D01*
X006238Y022847D01*
X006240Y022851D01*
X006242Y022847D01*
X006270Y022819D01*
X006304Y022800D01*
X006342Y022789D01*
X006476Y022789D01*
X006476Y023270D01*
X006504Y023270D01*
X006504Y022789D01*
X006542Y022789D01*
X006542Y022681D01*
X003242Y022681D01*
X002804Y023119D01*
X003311Y023329D01*
X003754Y023669D01*
X003754Y023669D01*
X004094Y024112D01*
X004094Y024112D01*
X004307Y024628D01*
X004380Y025181D01*
X004307Y025735D01*
X004122Y026181D01*
X006242Y026181D01*
X006542Y025881D01*
X006522Y025901D02*
X004239Y025901D01*
X004279Y025803D02*
X006542Y025803D01*
X006542Y025704D02*
X004311Y025704D01*
X004307Y025735D02*
X004307Y025735D01*
X004324Y025606D02*
X006542Y025606D01*
X006542Y025507D02*
X004337Y025507D01*
X004350Y025409D02*
X006542Y025409D01*
X006542Y025310D02*
X004363Y025310D01*
X004376Y025211D02*
X006542Y025211D01*
X006542Y025113D02*
X004371Y025113D01*
X004358Y025014D02*
X006542Y025014D01*
X006542Y024916D02*
X004345Y024916D01*
X004332Y024817D02*
X006542Y024817D01*
X006542Y024719D02*
X004319Y024719D01*
X004307Y024628D02*
X004307Y024628D01*
X004304Y024620D02*
X006542Y024620D01*
X006542Y024522D02*
X004263Y024522D01*
X004223Y024423D02*
X006542Y024423D01*
X006542Y024325D02*
X004182Y024325D01*
X004141Y024226D02*
X006542Y024226D01*
X006542Y024127D02*
X004100Y024127D01*
X004030Y024029D02*
X006542Y024029D01*
X006542Y023930D02*
X003954Y023930D01*
X003879Y023832D02*
X006542Y023832D01*
X006504Y023733D02*
X006476Y023733D01*
X006476Y023635D02*
X006504Y023635D01*
X006504Y023536D02*
X006476Y023536D01*
X006476Y023438D02*
X006504Y023438D01*
X006504Y023339D02*
X006476Y023339D01*
X006476Y023241D02*
X006504Y023241D01*
X006504Y023142D02*
X006476Y023142D01*
X006476Y023043D02*
X006504Y023043D01*
X006504Y022945D02*
X006476Y022945D01*
X006476Y022846D02*
X006504Y022846D01*
X006542Y022748D02*
X003175Y022748D01*
X003077Y022846D02*
X005743Y022846D01*
X005712Y022945D02*
X002978Y022945D01*
X002880Y023043D02*
X005712Y023043D01*
X005712Y023142D02*
X002859Y023142D01*
X003096Y023241D02*
X005712Y023241D01*
X005712Y023339D02*
X003324Y023339D01*
X003311Y023329D02*
X003311Y023329D01*
X003452Y023438D02*
X005712Y023438D01*
X005712Y023536D02*
X003580Y023536D01*
X003709Y023635D02*
X005712Y023635D01*
X005755Y023733D02*
X003803Y023733D01*
X004198Y026000D02*
X006424Y026000D01*
X006325Y026098D02*
X004157Y026098D01*
X006242Y028181D02*
X005742Y028681D01*
X006242Y028181D02*
X009742Y028181D01*
X009761Y023733D02*
X007725Y023733D01*
X007738Y023720D02*
X007710Y023748D01*
X007676Y023768D01*
X007638Y023778D01*
X007504Y023778D01*
X007504Y023298D01*
X007768Y023298D01*
X007768Y023648D01*
X007758Y023686D01*
X007738Y023720D01*
X007768Y023635D02*
X009695Y023635D01*
X009597Y023536D02*
X007768Y023536D01*
X007768Y023438D02*
X009498Y023438D01*
X009400Y023339D02*
X007768Y023339D01*
X007768Y023241D02*
X009301Y023241D01*
X009202Y023142D02*
X007768Y023142D01*
X007768Y023043D02*
X009104Y023043D01*
X009005Y022945D02*
X007768Y022945D01*
X007504Y022945D02*
X007476Y022945D01*
X007476Y023043D02*
X007504Y023043D01*
X007504Y023142D02*
X007476Y023142D01*
X007476Y023241D02*
X007504Y023241D01*
X007504Y023339D02*
X007476Y023339D01*
X007476Y023438D02*
X007504Y023438D01*
X007504Y023536D02*
X007476Y023536D01*
X007476Y023635D02*
X007504Y023635D01*
X007504Y023733D02*
X007476Y023733D01*
X007255Y023733D02*
X007225Y023733D01*
X007237Y022846D02*
X007243Y022846D01*
X007476Y022846D02*
X007504Y022846D01*
X007042Y022281D02*
X007042Y021131D01*
X006990Y021079D01*
X006490Y021079D02*
X006490Y021933D01*
X006142Y022281D01*
X005507Y022281D01*
X005242Y022016D01*
X005242Y021347D02*
X005077Y021181D01*
X005976Y022846D02*
X006004Y022846D01*
X006004Y022945D02*
X005976Y022945D01*
X005976Y023043D02*
X006004Y023043D01*
X006004Y023142D02*
X005976Y023142D01*
X005976Y023241D02*
X006004Y023241D01*
X006004Y023339D02*
X005976Y023339D01*
X005976Y023438D02*
X006004Y023438D01*
X006004Y023536D02*
X005976Y023536D01*
X005976Y023635D02*
X006004Y023635D01*
X006004Y023733D02*
X005976Y023733D01*
X006225Y023733D02*
X006255Y023733D01*
X006237Y022846D02*
X006243Y022846D01*
X007490Y021079D02*
X007442Y021031D01*
X006242Y019681D02*
X006542Y019381D01*
X006542Y017278D01*
X006504Y017278D01*
X006504Y016798D01*
X006476Y016798D01*
X006476Y017278D01*
X006342Y017278D01*
X006304Y017268D01*
X006270Y017248D01*
X006242Y017220D01*
X006240Y017217D01*
X006238Y017220D01*
X006210Y017248D01*
X006176Y017268D01*
X006138Y017278D01*
X006004Y017278D01*
X006004Y016798D01*
X005976Y016798D01*
X005976Y017278D01*
X005842Y017278D01*
X005804Y017268D01*
X005770Y017248D01*
X005742Y017220D01*
X005722Y017186D01*
X005712Y017148D01*
X005712Y016798D01*
X005976Y016798D01*
X005976Y016770D01*
X005712Y016770D01*
X005712Y016420D01*
X005722Y016381D01*
X005742Y016347D01*
X005770Y016319D01*
X005804Y016300D01*
X005842Y016289D01*
X005976Y016289D01*
X005976Y016770D01*
X006004Y016770D01*
X006004Y016798D01*
X006268Y016798D01*
X006476Y016798D01*
X006476Y016770D01*
X006268Y016770D01*
X006004Y016770D01*
X006004Y016289D01*
X006138Y016289D01*
X006176Y016300D01*
X006210Y016319D01*
X006238Y016347D01*
X006240Y016351D01*
X006242Y016347D01*
X006270Y016319D01*
X006304Y016300D01*
X006342Y016289D01*
X006476Y016289D01*
X006476Y016770D01*
X006504Y016770D01*
X006504Y016289D01*
X006542Y016289D01*
X006542Y016181D01*
X003742Y016181D01*
X003707Y016216D01*
X004019Y016600D01*
X004019Y016600D01*
X004245Y017120D01*
X004245Y017120D01*
X004322Y017681D01*
X004245Y018243D01*
X004019Y018762D01*
X004019Y018762D01*
X003662Y019202D01*
X003662Y019202D01*
X003199Y019529D01*
X002769Y019681D01*
X006242Y019681D01*
X006329Y019594D02*
X003014Y019594D01*
X003199Y019529D02*
X003199Y019529D01*
X003245Y019496D02*
X006427Y019496D01*
X006526Y019397D02*
X003385Y019397D01*
X003524Y019299D02*
X006542Y019299D01*
X006542Y019200D02*
X003663Y019200D01*
X003743Y019102D02*
X006542Y019102D01*
X006542Y019003D02*
X003824Y019003D01*
X003904Y018905D02*
X006542Y018905D01*
X006542Y018806D02*
X003984Y018806D01*
X004043Y018708D02*
X006542Y018708D01*
X006542Y018609D02*
X004086Y018609D01*
X004129Y018510D02*
X006542Y018510D01*
X006542Y018412D02*
X004172Y018412D01*
X004214Y018313D02*
X006542Y018313D01*
X006542Y018215D02*
X004249Y018215D01*
X004245Y018243D02*
X004245Y018243D01*
X004263Y018116D02*
X006542Y018116D01*
X006542Y018018D02*
X004276Y018018D01*
X004290Y017919D02*
X006542Y017919D01*
X006542Y017821D02*
X004303Y017821D01*
X004317Y017722D02*
X006542Y017722D01*
X006542Y017624D02*
X004314Y017624D01*
X004301Y017525D02*
X006542Y017525D01*
X006542Y017426D02*
X004287Y017426D01*
X004274Y017328D02*
X006542Y017328D01*
X006504Y017229D02*
X006476Y017229D01*
X006476Y017131D02*
X006504Y017131D01*
X006504Y017032D02*
X006476Y017032D01*
X006476Y016934D02*
X006504Y016934D01*
X006504Y016835D02*
X006476Y016835D01*
X006476Y016737D02*
X006504Y016737D01*
X006504Y016638D02*
X006476Y016638D01*
X006476Y016540D02*
X006504Y016540D01*
X006504Y016441D02*
X006476Y016441D01*
X006476Y016343D02*
X006504Y016343D01*
X006542Y016244D02*
X003729Y016244D01*
X003810Y016343D02*
X005747Y016343D01*
X005712Y016441D02*
X003890Y016441D01*
X003970Y016540D02*
X005712Y016540D01*
X005712Y016638D02*
X004036Y016638D01*
X004079Y016737D02*
X005712Y016737D01*
X005712Y016835D02*
X004121Y016835D01*
X004164Y016934D02*
X005712Y016934D01*
X005712Y017032D02*
X004207Y017032D01*
X004247Y017131D02*
X005712Y017131D01*
X005751Y017229D02*
X004260Y017229D01*
X005507Y015781D02*
X005242Y015516D01*
X005507Y015781D02*
X006142Y015781D01*
X006490Y015433D01*
X006490Y014579D01*
X005992Y014581D02*
X005990Y014579D01*
X005242Y014781D02*
X005242Y014847D01*
X005976Y016343D02*
X006004Y016343D01*
X006004Y016441D02*
X005976Y016441D01*
X005976Y016540D02*
X006004Y016540D01*
X006004Y016638D02*
X005976Y016638D01*
X005976Y016737D02*
X006004Y016737D01*
X006004Y016835D02*
X005976Y016835D01*
X005976Y016934D02*
X006004Y016934D01*
X006004Y017032D02*
X005976Y017032D01*
X005976Y017131D02*
X006004Y017131D01*
X006004Y017229D02*
X005976Y017229D01*
X006229Y017229D02*
X006251Y017229D01*
X006233Y016343D02*
X006247Y016343D01*
X006976Y016343D02*
X007004Y016343D01*
X007004Y016441D02*
X006976Y016441D01*
X006976Y016540D02*
X007004Y016540D01*
X007004Y016638D02*
X006976Y016638D01*
X006976Y016737D02*
X007004Y016737D01*
X007004Y016835D02*
X006976Y016835D01*
X006976Y016934D02*
X007004Y016934D01*
X007004Y017032D02*
X006976Y017032D01*
X006976Y017131D02*
X007004Y017131D01*
X007004Y017229D02*
X006976Y017229D01*
X007229Y017229D02*
X007251Y017229D01*
X007476Y017229D02*
X007504Y017229D01*
X007504Y017131D02*
X007476Y017131D01*
X007476Y017032D02*
X007504Y017032D01*
X007504Y016934D02*
X007476Y016934D01*
X007476Y016835D02*
X007504Y016835D01*
X007504Y016737D02*
X007476Y016737D01*
X007476Y016638D02*
X007504Y016638D01*
X007504Y016540D02*
X007476Y016540D01*
X007476Y016441D02*
X007504Y016441D01*
X007504Y016343D02*
X007476Y016343D01*
X007247Y016343D02*
X007233Y016343D01*
X007225Y010233D02*
X007254Y010233D01*
X007476Y010233D02*
X007504Y010233D01*
X007504Y010134D02*
X007476Y010134D01*
X007476Y010036D02*
X007504Y010036D01*
X007504Y009937D02*
X007476Y009937D01*
X007476Y009839D02*
X007504Y009839D01*
X007504Y009740D02*
X007476Y009740D01*
X007476Y009642D02*
X007504Y009642D01*
X007504Y009543D02*
X007476Y009543D01*
X007476Y009444D02*
X007504Y009444D01*
X007504Y009346D02*
X007476Y009346D01*
X007243Y009346D02*
X007237Y009346D01*
X007042Y008681D02*
X007042Y007631D01*
X006990Y007579D01*
X006442Y007627D02*
X006442Y008081D01*
X006107Y008216D01*
X005242Y008216D01*
X005976Y009346D02*
X006004Y009346D01*
X006004Y009444D02*
X005976Y009444D01*
X005976Y009543D02*
X006004Y009543D01*
X006004Y009642D02*
X005976Y009642D01*
X005976Y009740D02*
X006004Y009740D01*
X006004Y009839D02*
X005976Y009839D01*
X005976Y009937D02*
X006004Y009937D01*
X006004Y010036D02*
X005976Y010036D01*
X005976Y010134D02*
X006004Y010134D01*
X006004Y010233D02*
X005976Y010233D01*
X006225Y010233D02*
X006254Y010233D01*
X006237Y009346D02*
X006243Y009346D01*
X007242Y006181D02*
X009742Y006181D01*
X009742Y005181D01*
X010242Y004681D01*
X010736Y004681D01*
X010545Y004642D01*
X010042Y004381D01*
X009628Y003994D01*
X009334Y003510D01*
X009181Y002965D01*
X009181Y002965D01*
X009181Y002681D01*
X006942Y002681D01*
X006942Y002789D01*
X006976Y002789D01*
X006976Y003270D01*
X007004Y003270D01*
X007004Y003298D01*
X006976Y003298D01*
X006976Y003778D01*
X006942Y003778D01*
X006942Y005881D01*
X007242Y006181D01*
X007154Y006094D02*
X009742Y006094D01*
X009742Y005995D02*
X007056Y005995D01*
X006957Y005897D02*
X009742Y005897D01*
X009742Y005798D02*
X006942Y005798D01*
X006942Y005700D02*
X009742Y005700D01*
X009742Y005601D02*
X006942Y005601D01*
X006942Y005503D02*
X009742Y005503D01*
X009742Y005404D02*
X006942Y005404D01*
X006942Y005306D02*
X009742Y005306D01*
X009742Y005207D02*
X006942Y005207D01*
X006942Y005109D02*
X009815Y005109D01*
X009913Y005010D02*
X006942Y005010D01*
X006942Y004911D02*
X010012Y004911D01*
X010110Y004813D02*
X006942Y004813D01*
X006942Y004714D02*
X010209Y004714D01*
X010305Y004517D02*
X006942Y004517D01*
X006942Y004419D02*
X010115Y004419D01*
X010042Y004381D02*
X010042Y004381D01*
X009977Y004320D02*
X006942Y004320D01*
X006942Y004222D02*
X009872Y004222D01*
X009766Y004123D02*
X006942Y004123D01*
X006942Y004025D02*
X009661Y004025D01*
X009628Y003994D02*
X009628Y003994D01*
X009587Y003926D02*
X006942Y003926D01*
X006942Y003828D02*
X009527Y003828D01*
X009467Y003729D02*
X007729Y003729D01*
X007738Y003720D02*
X007710Y003748D01*
X007676Y003768D01*
X007638Y003778D01*
X007504Y003778D01*
X007504Y003298D01*
X007476Y003298D01*
X007476Y003778D01*
X007342Y003778D01*
X007304Y003768D01*
X007270Y003748D01*
X007242Y003720D01*
X007240Y003717D01*
X007238Y003720D01*
X007210Y003748D01*
X007176Y003768D01*
X007138Y003778D01*
X007004Y003778D01*
X007004Y003298D01*
X007212Y003298D01*
X007476Y003298D01*
X007476Y003270D01*
X007212Y003270D01*
X007004Y003270D01*
X007004Y002789D01*
X007138Y002789D01*
X007176Y002800D01*
X007210Y002819D01*
X007238Y002847D01*
X007240Y002851D01*
X007242Y002847D01*
X007270Y002819D01*
X007304Y002800D01*
X007342Y002789D01*
X007476Y002789D01*
X007476Y003270D01*
X007504Y003270D01*
X007504Y003298D01*
X007768Y003298D01*
X007768Y003648D01*
X007758Y003686D01*
X007738Y003720D01*
X007768Y003630D02*
X009407Y003630D01*
X009347Y003532D02*
X007768Y003532D01*
X007768Y003433D02*
X009312Y003433D01*
X009334Y003510D02*
X009334Y003510D01*
X009285Y003335D02*
X007768Y003335D01*
X007768Y003270D02*
X007768Y002920D01*
X007758Y002881D01*
X007738Y002847D01*
X007710Y002819D01*
X007676Y002800D01*
X007638Y002789D01*
X007504Y002789D01*
X007504Y003270D01*
X007768Y003270D01*
X007768Y003236D02*
X009257Y003236D01*
X009229Y003138D02*
X007768Y003138D01*
X007768Y003039D02*
X009202Y003039D01*
X009181Y002941D02*
X007768Y002941D01*
X007733Y002842D02*
X009181Y002842D01*
X009181Y002744D02*
X006942Y002744D01*
X006976Y002842D02*
X007004Y002842D01*
X007004Y002941D02*
X006976Y002941D01*
X006976Y003039D02*
X007004Y003039D01*
X007004Y003138D02*
X006976Y003138D01*
X006976Y003236D02*
X007004Y003236D01*
X007004Y003335D02*
X006976Y003335D01*
X006976Y003433D02*
X007004Y003433D01*
X007004Y003532D02*
X006976Y003532D01*
X006976Y003630D02*
X007004Y003630D01*
X007004Y003729D02*
X006976Y003729D01*
X007229Y003729D02*
X007251Y003729D01*
X007476Y003729D02*
X007504Y003729D01*
X007504Y003630D02*
X007476Y003630D01*
X007476Y003532D02*
X007504Y003532D01*
X007504Y003433D02*
X007476Y003433D01*
X007476Y003335D02*
X007504Y003335D01*
X007504Y003236D02*
X007476Y003236D01*
X007476Y003138D02*
X007504Y003138D01*
X007504Y003039D02*
X007476Y003039D01*
X007476Y002941D02*
X007504Y002941D01*
X007504Y002842D02*
X007476Y002842D01*
X007247Y002842D02*
X007233Y002842D01*
X006504Y002842D02*
X006476Y002842D01*
X006476Y002941D02*
X006504Y002941D01*
X006504Y003039D02*
X006476Y003039D01*
X006476Y003138D02*
X006504Y003138D01*
X006504Y003236D02*
X006476Y003236D01*
X006476Y003335D02*
X006504Y003335D01*
X006504Y003433D02*
X006476Y003433D01*
X006476Y003532D02*
X006504Y003532D01*
X006504Y003630D02*
X006476Y003630D01*
X006476Y003729D02*
X006504Y003729D01*
X006251Y003729D02*
X006229Y003729D01*
X006004Y003729D02*
X005976Y003729D01*
X005976Y003630D02*
X006004Y003630D01*
X006004Y003532D02*
X005976Y003532D01*
X005976Y003433D02*
X006004Y003433D01*
X006004Y003335D02*
X005976Y003335D01*
X005976Y003236D02*
X006004Y003236D01*
X006004Y003138D02*
X005976Y003138D01*
X005976Y003039D02*
X006004Y003039D01*
X006004Y002941D02*
X005976Y002941D01*
X005976Y002842D02*
X006004Y002842D01*
X006233Y002842D02*
X006247Y002842D01*
X006942Y004616D02*
X010495Y004616D01*
X010545Y004642D02*
X010545Y004642D01*
X010742Y006016D02*
X010742Y006181D01*
X010142Y006781D01*
X008742Y006781D01*
X008642Y006881D01*
X008642Y006981D01*
X008277Y008481D02*
X008242Y008516D01*
X008077Y008516D01*
X008277Y008481D02*
X009842Y008481D01*
X010742Y007581D01*
X010742Y007766D01*
X010677Y007116D02*
X009392Y007181D01*
X010677Y007116D02*
X010742Y007097D01*
X010742Y006016D02*
X011157Y006016D01*
X011242Y005931D01*
X011242Y005431D01*
X011327Y005347D01*
X011742Y005347D01*
X011192Y002731D02*
X011192Y002681D01*
X009775Y002681D01*
X009775Y002731D01*
X011192Y002731D01*
X010742Y015016D02*
X010742Y017181D01*
X011242Y017681D01*
X010242Y022016D02*
X010242Y022181D01*
X009742Y022681D01*
X007742Y026681D02*
X007742Y027681D01*
D21*
X004742Y027681D02*
X001992Y027681D01*
X001992Y028681D02*
X004742Y028681D01*
D22*
X009392Y007181D03*
X004242Y000931D03*
D23*
X002242Y002681D02*
X004242Y004681D01*
X002242Y010181D02*
X002742Y010681D01*
X004242Y010681D01*
X003742Y011181D01*
X003242Y011181D01*
X003742Y017681D02*
X002242Y017681D01*
X003242Y018181D02*
X003742Y017681D01*
X003742Y024181D02*
X004242Y024681D01*
X002242Y025181D01*
X009242Y024681D02*
X011242Y025181D01*
X009742Y018181D02*
X009242Y017681D01*
X011242Y017681D01*
X009742Y011181D02*
X009242Y010681D01*
X009830Y010534D01*
X011242Y010181D01*
X010042Y003381D02*
X010242Y003181D01*
X010742Y002681D01*
X011242Y002681D01*
M02*
